<?xml version="1.0" encoding="UTF-8"?>
<svg id="Camada_3" data-name="Camada 3" xmlns="http://www.w3.org/2000/svg" viewBox="0 0 60 60">
  <defs>
    <style>
      .cls-1 {
        fill: #fff;
        stroke-width: 0px;
      }
    </style>
  </defs>
  <path class="cls-1" d="M47.48,44.25c-.12-.02-.24-.02-.37-.02-.82-.02-.81-.02-.98-.8-.86-3.87-3.19-6.38-6.98-7.57-.27-.08-.56-.27-.73-.5-1.61-2.24-3.81-3.53-6.5-4.04-.21-.04-.42-.11-.66-.18.43-1.84,1.45-3.23,2.67-4.52.39.2.7.43,1.04.52.86.25,1.73.58,2.6.62,2.47.11,5.22-1.3,6.19-4.21.95-2.85,1.3-5.81,1.67-8.76.08-.65-.44-1.19-1.1-1.23-.22-.02-.45,0-.67.02-.87.11-1.74.22-2.61.35-1.9.29-3.79.63-5.62,1.26-1.32.46-2.42,1.19-3.16,2.39-1.4,2.24-1.47,4.54-.2,6.85.21.39.21.62-.08.96-.6.72-1.14,1.49-1.71,2.24-.08.11-.18.21-.29.34-.12-.13-.21-.23-.3-.34-.55-.73-1.07-1.5-1.66-2.19-.33-.38-.33-.65-.08-1.07,1.9-3.25.54-7.99-3.41-9.17-1.6-.48-3.25-.83-4.89-1.14-1.26-.24-2.55-.39-3.83-.49-.83-.07-1.39.55-1.27,1.35.34,2.22.64,4.44,1.1,6.64.24,1.14.62,2.32,1.21,3.32,1.67,2.86,5.67,3.76,8.63,2.01.43-.25.67-.21.97.15.73.89,1.43,1.79,1.88,2.86.16.39.27.79.42,1.25-.38.08-.65.14-.93.2-2.55.57-4.66,1.82-6.23,3.95-.19.25-.51.47-.81.57-1.64.5-3.09,1.32-4.29,2.53-1.46,1.46-2.35,3.23-2.69,5.26-.07.44-.25.59-.68.57-.28-.01-.58,0-.85.07-.53.13-.85.57-.83,1.07.02.51.44.96.97,1.03.24.03.49.02.74.02,11.22,0,22.43,0,33.65,0,.18,0,.37,0,.55,0,.65-.03,1.13-.46,1.17-1.03.04-.58-.39-1.05-1.05-1.14ZM32.89,24.53c.69-.7,1.38-1.39,2.08-2.08.63-.61,1.26-1.22,1.92-1.8.25-.22.56-.35.94-.58.32.26.64.44.85.7.25.32.19.7-.05,1.03-.1.13-.21.25-.33.36-1.32,1.31-2.64,2.61-3.94,3.94-.31.32-.57.36-.87.05-.27-.28-.53-.56-.77-.87-.24-.3-.03-.54.18-.75ZM26.43,26.2c-.22.22-.43.24-.68,0-1.4-1.41-2.81-2.8-4.21-4.21-.46-.46-.47-.98-.09-1.43.36-.42,1.01-.52,1.43-.12,1.56,1.47,3.09,2.97,4.71,4.53-.44.47-.8.86-1.17,1.23Z"/>
</svg>