<?xml version="1.0" encoding="UTF-8"?>
<svg id="Camada_1" data-name="Camada 1" xmlns="http://www.w3.org/2000/svg" viewBox="0 0 60 60">
  <defs>
    <style>
      .cls-1 {
        fill: #fff;
        stroke-width: 0px;
      }
    </style>
  </defs>
  <path class="cls-1" d="M30.21,46.67c-4.24,0-8.47,0-12.71,0-2.32,0-4.05-1.69-4.06-3.94,0-2.25,1.72-3.95,4.05-3.95,8.49,0,16.99,0,25.48,0,2.31,0,4.03,1.71,4.03,3.97,0,2.22-1.74,3.91-4.02,3.91-4.26,0-8.51,0-12.77,0ZM20.45,42.71c0,.59.3.92.87.94.56.01.93-.32.95-.87.02-.58-.33-.94-.92-.96-.58-.02-.86.34-.91.89ZM35.55,42.74c-.04-.56-.31-.93-.89-.92-.59,0-.95.36-.93.94.01.55.37.89.93.89.57,0,.88-.33.89-.91ZM39.99,42.74c-.04-.56-.31-.93-.89-.92-.59,0-.95.36-.94.94.01.55.37.89.93.89.57,0,.88-.33.89-.9ZM17.99,42.91c0-.13,0-.26,0-.38-.35-.24-.69-.62-1.07-.68-.57-.08-.92.32-.89.93.02.57.37.96.91.85.38-.08.7-.46,1.05-.71ZM43.53,43.66c.58-.05.89-.35.89-.92,0-.58-.32-.9-.88-.92-.57-.02-.92.34-.93.88-.02.58.35.89.92.96ZM26.67,42.83c0-.65-.29-.99-.85-1.02-.6-.02-.91.33-.93.92-.02.59.32.9.87.91.56,0,.88-.31.9-.81ZM31.11,42.78c-.03-.59-.29-.97-.91-.97-.58,0-.86.37-.87.94,0,.59.34.9.9.89.54,0,.85-.31.88-.86Z"/>
  <path class="cls-1" d="M23.23,28.39c-1.5,0-3-.01-4.49,0-.48,0-.62-.17-.65-.64-.16-2.53.53-4.72,2.34-6.57.27-.28.22-.93.23-1.41.04-1.59-.16-1.38,1.39-1.39,1.02,0,2.03.01,3.05,0,.43,0,.63.17.58.59-.17,1.3.23,2.31,1.12,3.33,1.38,1.58,1.62,3.6,1.5,5.64,0,.16-.37.43-.57.44-1.5.04-3,.02-4.49.02Z"/>
  <path class="cls-1" d="M37.25,28.39c-1.5,0-3-.01-4.49,0-.48,0-.64-.18-.65-.65-.07-2.49.55-4.71,2.38-6.51.2-.19.26-.6.26-.9.03-1.96.02-1.96,1.99-1.96.81,0,1.63.01,2.44,0,.43,0,.65.15.59.58-.19,1.32.26,2.35,1.14,3.38,1.38,1.6,1.57,3.61,1.4,5.65-.01.15-.37.38-.57.38-1.5.03-3,.02-4.49.02Z"/>
  <path class="cls-1" d="M23.17,32.94c-1.46,0-2.92-.02-4.38,0-.54.01-.7-.19-.7-.71,0-1.98-.02-1.98,1.97-1.98,2.5,0,4.99.02,7.49-.01.61,0,.8.21.8.8,0,1.89,0,1.89-1.9,1.89-1.09,0-2.18,0-3.27,0Z"/>
  <path class="cls-1" d="M37.22,32.94c-1.5,0-3-.01-4.49,0-.46,0-.64-.17-.62-.62.02-.48.02-.96,0-1.44-.02-.49.21-.64.67-.64,2.98.01,5.95.01,8.93,0,.48,0,.64.18.64.65.03,2.04.04,2.04-2.02,2.04-1.04,0-2.07,0-3.11,0Z"/>
  <path class="cls-1" d="M23.23,36.91c-1.48,0-2.95-.02-4.43,0-.52,0-.72-.16-.71-.7.04-1.56-.19-1.41,1.38-1.41,2.68,0,5.35.01,8.03-.01.61,0,.86.17.85.81-.03,1.3,0,1.3-1.29,1.3-1.27,0-2.55,0-3.82,0Z"/>
  <path class="cls-1" d="M37.27,34.81c1.46,0,2.92.02,4.39,0,.53,0,.71.19.7.71-.04,1.57.17,1.39-1.4,1.39-2.68,0-5.37-.01-8.05.01-.61,0-.86-.2-.8-.8.02-.22.02-.44,0-.66-.03-.48.19-.66.66-.65,1.5.01,3,0,4.5,0Z"/>
  <path class="cls-1" d="M23.16,16.51c-.65,0-1.3.04-1.94-.03-.2-.02-.5-.33-.53-.54-.07-.54-.04-1.1-.02-1.66.03-.72.41-1.13,1.16-1.13.91,0,1.81,0,2.72,0,.73,0,1.09.4,1.12,1.1.03.55,0,1.11.01,1.66.02.43-.15.61-.58.59-.65-.02-1.29,0-1.94,0Z"/>
  <path class="cls-1" d="M37.24,16.51c-.63,0-1.26-.01-1.89,0-.41.01-.62-.13-.6-.58.02-.57-.02-1.15.02-1.72.04-.67.4-1.06,1.1-1.06.92,0,1.85,0,2.77,0,.69,0,1.07.39,1.11,1.05.04.59.06,1.19,0,1.77-.02.19-.32.48-.51.5-.66.06-1.33.02-1.99.02Z"/>
</svg>