<?xml version="1.0" encoding="UTF-8"?>
<svg id="Camada_3" data-name="Camada 3" xmlns="http://www.w3.org/2000/svg" xmlns:xlink="http://www.w3.org/1999/xlink" viewBox="0 0 60 60">
  <defs>
    <style>
      .cls-1 {
        fill: url(#Gradiente_sem_nome_967-3);
      }

      .cls-1, .cls-2, .cls-3, .cls-4 {
        stroke-width: 0px;
      }

      .cls-2 {
        fill: url(#Gradiente_sem_nome_967-4);
      }

      .cls-3 {
        fill: url(#Gradiente_sem_nome_967);
      }

      .cls-4 {
        fill: url(#Gradiente_sem_nome_967-2);
      }
    </style>
    <linearGradient id="Gradiente_sem_nome_967" data-name="Gradiente sem nome 967" x1="34.21" y1="12.53" x2="25.69" y2="27.3" gradientUnits="userSpaceOnUse">
      <stop offset="0" stop-color="#009cd1"/>
      <stop offset=".87" stop-color="#0075be"/>
      <stop offset=".99" stop-color="#005b97"/>
    </linearGradient>
    <linearGradient id="Gradiente_sem_nome_967-2" data-name="Gradiente sem nome 967" x1="38.77" y1="26.45" x2="24.04" y2="51.97" xlink:href="#Gradiente_sem_nome_967"/>
    <linearGradient id="Gradiente_sem_nome_967-3" data-name="Gradiente sem nome 967" x1="40.29" y1="-.65" x2="20.45" y2="33.72" xlink:href="#Gradiente_sem_nome_967"/>
    <linearGradient id="Gradiente_sem_nome_967-4" data-name="Gradiente sem nome 967" x1="32.73" y1="12.46" x2="28.01" y2="20.62" xlink:href="#Gradiente_sem_nome_967"/>
  </defs>
  <path class="cls-3" d="M27.28,19.9c.9,0,1.8,0,2.71,0,.88,0,1.77,0,2.65,0-.88,0-1.77,0-2.65,0-.9,0-1.8,0-2.71,0Z"/>
  <path class="cls-4" d="M46.18,44.02c-.39-.08-.48-.27-.47-.62.01-1.13.02-2.26,0-3.39,0-.4.04-.66.54-.72.5-.05.82-.54.8-1.01-.02-.45-.35-.83-.85-.93-.2-.04-.41-.04-.62-.04-.92,0-1.85.02-2.77-.02-.29-.01-.64-.14-.86-.32-2.52-2.15-5.02-4.33-7.53-6.49-.3-.26-.42-.48-.29-.91.56-1.87-.13-3.76-1.76-4.85-.88-.59-1.44-1.32-1.37-2.42.02-.34-.14-.48-.47-.47-.36,0-.72.01-1.07,0-.35-.01-.51.12-.51.49-.01,1.56.57,2.82,1.82,3.76.23.17.47.31.69.49.63.51.89,1.27.67,1.98-1.44-.73-2.89-.74-4.38.04-.07-.24-.11-.38-.15-.52-.17-.51-.56-.77-1.07-.72-.5.05-.85.41-.86.95,0,.37-.01.78.12,1.11.22.55.01.84-.39,1.18-2.41,2.05-4.8,4.12-7.18,6.21-.39.35-.78.53-1.31.51-.96-.03-1.92-.02-2.88,0-.64.02-1.06.39-1.11.91-.05.53.29.98.92,1.09.35.06.42.23.42.53,0,1.09-.02,2.19.01,3.28.01.5-.03.85-.65.95-.46.07-.72.53-.7.97.03.45.38.86.85.93.24.04.49.03.73.03,10.32,0,20.64,0,30.96,0,.15,0,.3,0,.45,0,.62-.02,1.06-.38,1.11-.91.06-.51-.26-.95-.87-1.07ZM30.53,30.35c-.49.4-1.07.39-1.51-.01.46-.4,1.08-.39,1.51.01ZM20.84,37.26c.23-.23.37-.38.51-.5,1.79-1.55,3.6-3.08,5.38-4.65.33-.29.56-.36.97-.11,1.54.93,3.1.9,4.64-.02.26-.16.46-.26.74-.01,1.9,1.66,3.81,3.3,5.72,4.95.08.07.15.16.32.35h-18.29Z"/>
  <path class="cls-1" d="M27.28,19.9c.9,0,1.8,0,2.71,0,.88,0,1.77,0,2.65,0,1.01,0,1.37-.34,1.4-1.34.02-.94.03-1.88,0-2.82-.01-.32-.11-.67-.27-.96-.43-.79-.92-1.55-1.38-2.33-.24-.41-.59-.61-1.07-.6-.86,0-1.73,0-2.59,0-.5,0-.86.2-1.11.63-.45.76-.92,1.51-1.35,2.28-.14.25-.27.56-.28.84-.03,1.03-.04,2.07,0,3.1.03.86.42,1.19,1.31,1.19ZM29.99,14.92c.53,0,.98.42.98.94,0,.52-.43.96-.96.97-.53,0-.98-.43-.98-.95,0-.52.43-.96.96-.96Z"/>
  <path class="cls-2" d="M27.28,19.9c.9,0,1.8,0,2.71,0,.88,0,1.77,0,2.65,0,1.01,0,1.37-.34,1.4-1.34.02-.94.03-1.88,0-2.82-.01-.32-.11-.67-.27-.96-.43-.79-.92-1.55-1.38-2.33-.24-.41-.59-.61-1.07-.6-.86,0-1.73,0-2.59,0-.5,0-.86.2-1.11.63-.45.76-.92,1.51-1.35,2.28-.14.25-.27.56-.28.84-.03,1.03-.04,2.07,0,3.1.03.86.42,1.19,1.31,1.19ZM29.99,14.92c.53,0,.98.42.98.94,0,.52-.43.96-.96.97-.53,0-.98-.43-.98-.95,0-.52.43-.96.96-.96Z"/>
</svg>