<?xml version="1.0" encoding="UTF-8"?>
<svg id="Camada_2" data-name="Camada 2" xmlns="http://www.w3.org/2000/svg" viewBox="0 0 692.52 545.75">
  <defs>
    <style>
      .cls-1 {
        fill: #fff;
        stroke-width: 0px;
      }
    </style>
  </defs>
  <g id="Camada_7" data-name="Camada 7">
    <g>
      <path class="cls-1" d="M427.83,242.39c3.5.4,6.1.9,8.3,3.9,1.6,2.1,2.7,4.8,3.9,7.2,5,.5,15.4,2.3,19.3-.9,1.4-1.1,2.1-2.6,2.1-4.4.2-6.1-5.9-14.6-10.1-18.7-14.5-14-39.9-10.7-58.6-10.2-2.6.1-5.2.1-7.8.2-11.4.6-21.4,2.2-29.6,11-5.9,6.6-8.6,15.8-8,24.6.5,8.6,4.1,17,10.7,22.7,21.3,18.3,78.1-5.4,80.5,22,.4,4.3-.7,8.4-3.5,11.8-4.1,4.9-10,5.9-16,6.3-10.8.6-36.4,2.4-44.2-4.8-6.2-5.6-4.6-12.7-15.2-12.4-3,.1-10.1.1-12.3,2.2-1.3,2.8-.2,5.6.7,8.3,3.5,10.2,10.7,20.4,20.7,25.1,12,5.7,37.9,3.4,51.9,3.4,11.3,0,20.9-2.6,29.1-10.8.9-.9,1.7-1.8,2.5-2.8s1.6-2,2.3-3,1.3-2.1,1.9-3.2c.6-1.1,1.1-2.2,1.6-3.4.5-1.1.9-2.3,1.3-3.5.3-1.2.7-2.4.9-3.6.3-1.2.5-2.5.6-3.7s.2-2.5.2-3.7c0-10.6-4.5-20.6-12-28.1-10.4-10.3-24.7-10.4-38.3-10.2-9.8.1-31.5,3-38.7-4-1.6-1.6-2.4-3.7-2.4-5.9,0-3.2,1.2-6.8,3.7-9,5-4.5,46.4-3.4,54.5-2.4Z"/>
      <path class="cls-1" d="M338.13,266.39c3.8-8.1,3.9-17.1.9-25.4-2.8-7.7-8.4-14.6-16-18-8.5-3.8-67.2-3.3-79.7-2.8l-9.1.5c-1.6,39.2-1.3,79,0,118.2,6.6.1,13.1.2,19.7-.2.6-17.3-.9-36.8.5-53.5,10.2-1.4,23.6-2.4,32.3,4.1,10.7,8,19.4,31.5,25.9,43.8,1.3,2.2,2.6,4.4,4.1,6.4,8.2.8,16.2.6,24.5.1-8.6-18.3-19.4-35.7-27.2-54.4,10.8-3.8,19-7.9,24.1-18.8ZM255.23,263.19c-.1-5-2-15.7.3-19.9.8-1.3,2.2-1.2,3.6-1.5,14.5-.3,29.5-.7,44,0,4.7.2,11,1.3,14.2,5.1,1.7,2,1.8,4.1,1.5,6.6-.5,4.1-2.6,5.9-5.6,8.2-10.4,3.8-45.5,1.6-58,1.5Z"/>
      <path class="cls-1" d="M683.86,320.73h-73.13c1.01-6.94,2.07-16.28,2.51-27.34,1.07-27.24,1.14-41.29-7.42-53.13-5.3-7.32-14.11-13.02-28.68-16.97-12.3-3.3-28.4-3.7-35.6-15.9-4.8-8.1-8-19.5-5.5-28.8,1.5-5.7,4.9-10.7,7.9-15.6,10.2-16.6,22.5-34.8,11.7-54.1-6.2-11.1-28.2-35.8-38.2-43.9-3.9-3.1-8.2-5.7-13-7.1-9.8-2.8-19.1.5-27.6,5.4-11,6.2-28.3,23.9-41,20.4-7.8-2.1-20.3-7.7-24.3-15.1-2.6-4.7-3.4-10.4-4.4-15.5-3.6-17.4-6.9-43.2-26.4-49.7C366.53-1.31,345.03,0,330.13.79c-10.7.9-21.3,2.1-28.7,10.8-12.6,14.8-10.3,48-19.2,59-2.8,3.4-7.8,5.9-11.7,7.8-4.7,2.3-9.8,4.4-15,5-7.4.8-13.2-2.9-18.9-7-8.8-6.4-18-14.1-28.4-17.7-20.1-7-35.3,9.6-47.6,23-5.3,5.7-10.8,11.5-15.7,17.5-7.1,8.5-10.7,17.7-9.7,28.8,2.6,28.8,32.2,40.4,22,69.7-1.7,4.8-3.8,9.9-7.1,13.9-15.8,18.9-61.4,1-67.7,46-3,21.1.9,42.8.8,64l-14.09.14H8.66c-4.78,0-8.66,3.88-8.66,8.66s3.88,8.66,8.66,8.66h.58c.08,0,.16,0,.24,0h152.5c.46,0,.92-.05,1.36-.12,17.39-.01,34.79-.03,52.18-.04-1.73-9.49-3.55-22.99-3.59-39.2-.06-29.22-.6-69.14,27-104.8,21.9-28.3,54.6-48.4,90.3-52.8,2.9-.4,5.8-.6,8.8-.8,38.6-.7,74.2,9.2,102.5,36.5,40.53,39.09,42.24,89.67,42.6,105.1.57,24.11-4.51,43.62-8.65,55.83,68.88-.22,137.76-.45,206.64-.67h0s2.74,0,2.74,0c4.78,0,8.66-3.88,8.66-8.66s-3.88-8.66-8.66-8.66ZM494.53,240.29c-4.6-21.1-14.6-41.4-27.6-58.5-25.3-33.4-61.8-53.3-103-58.9-1.8-.2-3.6-.4-5.5-.6-1.8-.2-3.7-.3-5.5-.4-1.8-.1-3.7-.1-5.5-.2h-5.5c-1.8.1-3.7.1-5.5.3-1.8.1-3.7.3-5.5.5s-3.6.4-5.5.7c-1.8.3-3.6.5-5.4.9-1.8.3-3.6.7-5.4,1.1-1.8.4-3.6.8-5.4,1.3s-3.5,1-5.3,1.5-3.5,1.1-5.2,1.7c-1.7.6-3.5,1.2-5.2,1.9s-3.4,1.4-5.1,2.1c-1.7.7-3.4,1.5-5,2.3-1.7.8-3.3,1.6-4.9,2.5-35.6,18.7-62.1,52.2-74.2,90.3-4.5,14.1-6.7,28.7-11,42.8-13.6,1.3-76.2,3.6-85.9-1.5-1.2-.7-1.5-1.3-1.8-2.6-6.5-24.6,51.5-17.8,63.2-38.7,3.4-6,5.7-13.1,8.4-19.4,10.7-24.9,9.9-33.5-5-56.7-4.3-6.7-9.9-14.2-12.1-21.9-1.1-4-.9-7.9,1.2-11.5,3.5-5.9,30.6-34.8,35.7-35.9,8.1-1.7,30.6,16.8,38.5,21.6,8.5,5.2,15.2,7.3,25.1,4.8,7-1.7,13.8-4.8,20.3-7.7,24.1-10.8,26.3-23.5,30.5-48,1.4-8,2.3-15.8,6.6-22.8,4.5-2.5,8.3-3.4,13.4-4,9.6-.8,32.7-2.5,41.4,1.7,13.5,6.5,6.1,49.5,26.2,64.5,6.6,5,14.9,8.3,22.5,11.5,6.5,2.7,13.5,5.8,20.7,6,13.3.3,29.8-14.3,40.2-21.7,3.6-2.6,7.8-5.8,12.4-6.3,3.5-.4,7,2.3,9.5,4.5,6.9,5.9,28.3,27.1,30.7,34.7,4,12.6-27.1,42.2-24.9,65.9.8,8.7,5.3,17.2,8.8,25.1,3,7,5.9,15.6,11.2,21.1,9.7,10.2,44.5,9.8,56.5,20.5,2.6,2.3,4.3,5.3,4.3,8.8-.2,1.7-.5,4-1.9,5.3-2.2,2-6.7,2.6-9.6,2.9-9.2,1-19.1.3-28.4.2-16.8-.1-33.7.2-50.4-1-2.6-10.1-3.9-20.5-6.1-30.7Z"/>
    </g>
    <path class="cls-1" d="M622.72,371.39h-76.27s0,0,0,0c-25.95-.31-51.9-.61-77.85-.92-6.28,8.31-12.4,14.65-17.28,19.2-5.05,4.72-12.25,11.51-23.44,17.55-2.8,1.51-6.05,3.09-6.05,3.09-1.98.99-4.07,1.97-6.17,2.84l-6.3,2.59c-2.1.86-4.32,1.6-6.42,2.35-2.1.74-4.2,1.48-6.42,2.1s-4.32,1.23-6.54,1.85c-2.22.62-4.44,1.11-6.67,1.6-2.22.49-4.44.99-6.67,1.36-2.22.49-4.44.74-6.67,1.11-2.35.37-4.57.62-6.79.86-2.22.25-4.57.49-6.79.62-2.22.25-4.57.25-6.79.37h-6.79c-2.22-.12-4.57-.12-6.79-.25-2.22-.12-4.57-.25-6.79-.49,0,0-3.43-.31-6.79-.74-60.4-7.71-86.66-39.69-86.66-39.69-2.69-3.28-6.73-8.69-10.56-16.32-29.13.31-58.26.61-87.38.92h-70.14c-5.28,0-9.56,4.28-9.56,9.56s4.28,9.56,9.56,9.56h58.82c-8.9,15.27-17.82,28.83-15.28,36.84,2.96,9.38,29.38,35.55,37.9,42.83,3.09,2.72,7.41,6.05,11.73,5.55,5.68-.62,10.86-4.57,15.31-7.78,12.84-9.13,33.21-27.16,49.62-26.79,8.89.25,17.53,4.07,25.55,7.41,9.38,3.95,19.63,8.02,27.77,14.2,24.81,18.52,15.68,71.59,32.34,79.62,10.74,5.18,39.25,3.09,51.1,2.1,6.3-.74,10.99-1.85,16.54-4.94,5.31-8.64,6.42-18.27,8.15-28.14,5.18-30.24,7.9-45.92,37.65-59.25,8.02-3.58,16.42-7.41,25.06-9.5,12.22-3.09,20.49-.49,30.98,5.93,9.75,5.92,37.53,28.76,47.52,26.66,6.3-1.36,39.75-37.03,44.07-44.31,2.59-4.44,2.84-9.26,1.48-14.2-2.63-9.2-9.18-18.16-14.41-26.22h63.1c5.28,0,9.56-4.28,9.56-9.56s-4.28-9.56-9.56-9.56Z"/>
  </g>
</svg>