<?xml version="1.0" encoding="UTF-8"?>
<svg id="Camada_2" data-name="Camada 2" xmlns="http://www.w3.org/2000/svg" viewBox="0 0 684.2 511.91">
  <defs>
    <style>
      .cls-1 {
        fill: #00a0e4;
      }

      .cls-1, .cls-2 {
        stroke-width: 0px;
      }

      .cls-2 {
        fill: #132951;
      }
    </style>
  </defs>
  <g id="Camada_3" data-name="Camada 3">
    <g id="Camada_5" data-name="Camada 5">
      <g>
        <path class="cls-2" d="M385.2,219.49c2.6-.1,5.2-.1,7.8-.2,18.7-.5,44.1-3.8,58.6,10.2,4.2,4.1,10.3,12.6,10.1,18.7,0,1.8-.7,3.3-2.1,4.4-3.9,3.2-14.3,1.4-19.3.9-1.2-2.4-2.3-5.1-3.9-7.2-2.2-3-4.8-3.5-8.3-3.9-8.1-1-49.5-2.1-54.5,2.4-2.5,2.2-3.7,5.8-3.7,9,0,2.2.8,4.3,2.4,5.9,7.2,7,28.9,4.1,38.7,4,13.6-.2,27.9-.1,38.3,10.2,7.5,7.5,12,17.5,12,28.1,0,1.2-.1,2.5-.2,3.7s-.3,2.5-.6,3.7c-.2,1.2-.6,2.4-.9,3.6-.4,1.2-.8,2.4-1.3,3.5-.5,1.2-1,2.3-1.6,3.4s-1.2,2.2-1.9,3.2-1.5,2-2.3,3-1.6,1.9-2.5,2.8c-8.2,8.2-17.8,10.8-29.1,10.8-14,0-39.9,2.3-51.9-3.4-10-4.7-17.2-14.9-20.7-25.1-.9-2.7-2-5.5-.7-8.3,2.2-2.1,9.3-2.1,12.3-2.2,10.6-.3,9,6.8,15.2,12.4,7.8,7.2,33.4,5.4,44.2,4.8,6-.4,11.9-1.4,16-6.3,2.8-3.4,3.9-7.5,3.5-11.8-2.4-27.4-59.2-3.7-80.5-22-6.6-5.7-10.2-14.1-10.7-22.7-.6-8.8,2.1-18,8-24.6,8.2-8.8,18.2-10.4,29.6-11Z"/>
        <path class="cls-2" d="M314.3,285.19c10.8-3.8,19-7.9,24.1-18.8,3.8-8.1,3.9-17.1.9-25.4-2.8-7.7-8.4-14.6-16-18-8.5-3.8-67.2-3.3-79.7-2.8l-9.1.5c-1.6,39.2-1.3,79,0,118.2,6.6.1,13.1.2,19.7-.2.6-17.3-.9-36.8.5-53.5,10.2-1.4,23.6-2.4,32.3,4.1,10.7,8,19.4,31.5,25.9,43.8,1.3,2.2,2.6,4.4,4.1,6.4,8.2.8,16.2.6,24.5.1-8.6-18.3-19.4-35.7-27.2-54.4ZM255.5,263.19c-.1-5-2-15.7.3-19.9.8-1.3,2.2-1.2,3.6-1.5,14.5-.3,29.5-.7,44,0,4.7.2,11,1.3,14.2,5.1,1.7,2,1.8,4.1,1.5,6.6-.5,4.1-2.6,5.9-5.6,8.2-10.4,3.8-45.5,1.6-58,1.5Z"/>
        <path class="cls-1" d="M650.7,312.59c-8.9.2-18.1.9-26.9.3-2.6-.2-5.8-.3-8-1.9-2.9-5-2.3-12-2.3-17.6.5-35,4.1-59.2-36.1-70.1-12.3-3.3-28.4-3.7-35.6-15.9-4.8-8.1-8-19.5-5.5-28.8,1.5-5.7,4.9-10.7,7.9-15.6,10.2-16.6,22.5-34.8,11.7-54.1-6.2-11.1-28.2-35.8-38.2-43.9-3.9-3.1-8.2-5.7-13-7.1-9.8-2.8-19.1.5-27.6,5.4-11,6.2-28.3,23.9-41,20.4-7.8-2.1-20.3-7.7-24.3-15.1-2.6-4.7-3.4-10.4-4.4-15.5-3.6-17.4-6.9-43.2-26.4-49.7C366.8-1.31,345.3,0,330.4.79c-10.7.9-21.3,2.1-28.7,10.8-12.6,14.8-10.3,48-19.2,59-2.8,3.4-7.8,5.9-11.7,7.8-4.7,2.3-9.8,4.4-15,5-7.4.8-13.2-2.9-18.9-7-8.8-6.4-18-14.1-28.4-17.7-20.1-7-35.3,9.6-47.6,23-5.3,5.7-10.8,11.5-15.7,17.5-7.1,8.5-10.7,17.7-9.7,28.8,2.6,28.8,32.2,40.4,22,69.7-1.7,4.8-3.8,9.9-7.1,13.9-15.8,18.9-61.4,1-67.7,46-3,21.1.9,42.8.8,64l-82.3.8c-.1,6-.3,12-.3,18,16.8.9,33.6.8,50.4,1,30,.3,60,.4,89.9.1,14.5-.1,29-.3,43.5-.7,11.3-.2,23.1.3,34.3-1.9-1.7-13.2-5.3-26-6.8-39.2-4.4-37.3,3.8-74.9,27-104.8,21.9-28.3,54.6-48.4,90.3-52.8,2.9-.4,5.8-.6,8.8-.8,38.6-.7,74.2,9.2,102.5,36.5s42.1,66.3,42.6,105.1c.2,16.2-3.8,32-3.9,48l203.6.1.2-18.2c-11-.3-21.8-.4-32.6-.2ZM589.3,268.89c-2.2,2-6.7,2.6-9.6,2.9-9.2,1-19.1.3-28.4.2-16.8-.1-33.7.2-50.4-1-2.6-10.1-3.9-20.5-6.1-30.7-4.6-21.1-14.6-41.4-27.6-58.5-25.3-33.4-61.8-53.3-103-58.9-1.8-.2-3.6-.4-5.5-.6-1.8-.2-3.7-.3-5.5-.4s-3.7-.1-5.5-.2h-5.5c-1.8.1-3.7.1-5.5.3-1.8.1-3.7.3-5.5.5s-3.6.4-5.5.7c-1.8.3-3.6.5-5.4.9-1.8.3-3.6.7-5.4,1.1-1.8.4-3.6.8-5.4,1.3s-3.5,1-5.3,1.5-3.5,1.1-5.2,1.7-3.5,1.2-5.2,1.9c-1.7.7-3.4,1.4-5.1,2.1s-3.4,1.5-5,2.3c-1.7.8-3.3,1.6-4.9,2.5-35.6,18.7-62.1,52.2-74.2,90.3-4.5,14.1-6.7,28.7-11,42.8-13.6,1.3-76.2,3.6-85.9-1.5-1.2-.7-1.5-1.3-1.8-2.6-6.5-24.6,51.5-17.8,63.2-38.7,3.4-6,5.7-13.1,8.4-19.4,10.7-24.9,9.9-33.5-5-56.7-4.3-6.7-9.9-14.2-12.1-21.9-1.1-4-.9-7.9,1.2-11.5,3.5-5.9,30.6-34.8,35.7-35.9,8.1-1.7,30.6,16.8,38.5,21.6,8.5,5.2,15.2,7.3,25.1,4.8,7-1.7,13.8-4.8,20.3-7.7,24.1-10.8,26.3-23.5,30.5-48,1.4-8,2.3-15.8,6.6-22.8,4.5-2.5,8.3-3.4,13.4-4,9.6-.8,32.7-2.5,41.4,1.7,13.5,6.5,6.1,49.5,26.2,64.5,6.6,5,14.9,8.3,22.5,11.5,6.5,2.7,13.5,5.8,20.7,6,13.3.3,29.8-14.3,40.2-21.7,3.6-2.6,7.8-5.8,12.4-6.3,3.5-.4,7,2.3,9.5,4.5,6.9,5.9,28.3,27.1,30.7,34.7,4,12.6-27.1,42.2-24.9,65.9.8,8.7,5.3,17.2,8.8,25.1,3,7,5.9,15.6,11.2,21.1,9.7,10.2,44.5,9.8,56.5,20.5,2.6,2.3,4.3,5.3,4.3,8.8-.2,1.7-.5,4-1.9,5.3Z"/>
        <path class="cls-1" d="M9.7,387c55.3-2.4,112.2,0,167.6.3,94.3.6,188.6.6,282.9.1l162-.2h35.9c6.1-.1,13.1-1.1,19.1.1,2.4.5,4.7,1.5,5.9,3.7,2.4,4.1.3,9.7-.9,13.9-10.3,2.3-21.8,2.3-32.3,2.4-18.9.2-37.8-.6-56.7-1-9.3-.2-18.8-.8-28-.3-13.8.8-21,11.4-29.5,20.9-4,4.7-7.9,9.5-12.3,13.8-31.5,31.1-50.1-17.8-78.4-17.6-7.3.1-14.3,3.6-20.7,6.8-5.6,2.7-11,5.6-15.4,10.1-16.8,17.1-6.9,48.2-23.2,63.3-11.7,10.9-36.6,8.7-51.5,7.8-51.5-3-25.2-47.3-46.8-71.2-5.1-5.6-12.5-8.5-19.3-11.4-5.9-2.6-12.9-5.9-19.5-5.7-17.8.5-38.2,29.3-58.2,27.9-15.3-1.1-34-26.2-43.6-37.5-2.6-3-5.6-6.3-9.5-7.4-7.8-2.2-20.8-.7-29.2-.7l-66.2.1c-10.9,0-22.5.8-33.4-.1-2.2-.2-5.8-.4-7.2-2.3-2.6-3.6-.6-11.4.1-15.4l8.3-.4Z"/>
      </g>
    </g>
  </g>
</svg>