<?xml version="1.0" encoding="UTF-8"?>
<svg id="Camada_3" data-name="Camada 3" xmlns="http://www.w3.org/2000/svg" viewBox="0 0 60 60">
  <defs>
    <style>
      .cls-1 {
        fill: #fff;
        stroke-width: 0px;
      }
    </style>
  </defs>
  <path class="cls-1" d="M17.06,39.21c-.13-1.22-.26-2.36-.38-3.5-.24-2.11-.48-4.21-.71-6.32-.19-1.68-.37-3.35-.55-5.03-.03-.29-.14-.43-.44-.42-.23,0-.47.01-.7-.01-.56-.06-.93-.48-.92-1.01.01-.53.4-.92.97-.96.16-.01.32,0,.49,0,9.91,0,19.82,0,29.72,0,.18,0,.36,0,.54,0,.51.05.88.41.92.9.04.5-.3.95-.8,1.06-.05.01-.11.01-.16.02-1.02.1-1.04.1-1.16,1.12-.28,2.43-.53,4.86-.8,7.28-.24,2.18-.51,4.35-.76,6.53-.01.09-.01.17-.02.34.51,0,.98.02,1.46-.02.09,0,.23-.2.25-.33.05-.23,0-.47.04-.7.08-.52.52-.89,1.01-.87.49.02.93.43.94.94.02,1.31.02,2.62,0,3.94-.01.56-.47.95-.99.94-.5,0-.9-.39-.97-.92q-.12-.99-1.16-.99c-.41,0-.83-.01-1.24,0-.37.01-.49-.15-.53-.51-.24-2.61-2.04-4.61-4.57-5.13-2.43-.5-6.43,1.02-6.75,4.78,0,.05-.03.1-.08.22-.06-.11-.12-.17-.13-.23-.29-2.64-2.19-4.17-4.54-4.7-3.3-.75-6.5,1.62-6.77,5-.04.44-.19.6-.62.58-.52-.02-1.04,0-1.56,0q-.72,0-.74.7c0,.05,0,.11,0,.16-.04.61-.47,1.06-1.01,1.05-.53-.01-.94-.43-.95-1.04-.02-.66,0-1.33,0-2,0-.59-.01-1.19,0-1.78.02-.59.43-1,.98-1,.51,0,.93.4.99.95q.11.97,1.12.97c.18,0,.35,0,.61,0ZM29.66,32.45c1.85,0,3.7,0,5.55,0,.84,0,1.13-.3,1.14-1.14,0-1.74,0-3.48,0-5.23,0-.85-.32-1.17-1.18-1.17-3.66,0-7.33,0-10.99,0-.84,0-1.16.33-1.16,1.18,0,1.71,0,3.41,0,5.12,0,.97.27,1.23,1.26,1.23,1.8,0,3.59,0,5.39,0Z"/>
  <path class="cls-1" d="M20.85,20.07c.13-.22.2-.36.28-.49.6-.9,1.21-1.79,1.79-2.7.3-.47.7-.71,1.25-.71,1.76,0,3.52-.03,5.28.02.37.01.74.3,1.1.46.05.02.08.07.11.11.8,1.15,1.89,1.42,3.26,1.36,2.25-.1,1.67-.21,3.22,1.31.18.17.34.36.6.64h-16.9Z"/>
  <path class="cls-1" d="M20.06,41.17c0-2.17,1.7-3.89,3.85-3.89,2.15,0,3.91,1.75,3.89,3.87-.02,2.15-1.75,3.87-3.89,3.88-2.09,0-3.85-1.75-3.85-3.85Z"/>
  <path class="cls-1" d="M39.3,41.17c-.01,2.11-1.76,3.86-3.85,3.85-2.16,0-3.93-1.79-3.89-3.93.04-2.12,1.77-3.82,3.89-3.81,2.15,0,3.86,1.74,3.85,3.89Z"/>
  <path class="cls-1" d="M29.68,30.63c-1.4,0-2.8,0-4.2,0-.63,0-.66-.02-.66-.68,0-.88.01-1.76,0-2.64,0-.43.12-.61.58-.61,2.85.01,5.71.01,8.56,0,.46,0,.59.18.59.61-.02.9,0,1.79,0,2.69,0,.6-.03.62-.66.63-1.4,0-2.8,0-4.2,0Z"/>
</svg>