<?xml version="1.0" encoding="UTF-8"?>
<svg id="Camada_4" data-name="Camada 4" xmlns="http://www.w3.org/2000/svg" xmlns:xlink="http://www.w3.org/1999/xlink" viewBox="0 0 60 60">
  <defs>
    <style>
      .cls-1 {
        fill: url(#Gradiente_sem_nome_967-3);
      }

      .cls-1, .cls-2, .cls-3, .cls-4, .cls-5, .cls-6, .cls-7 {
        stroke-width: 0px;
      }

      .cls-2 {
        fill: url(#Gradiente_sem_nome_967-4);
      }

      .cls-3 {
        fill: url(#Gradiente_sem_nome_967-7);
      }

      .cls-4 {
        fill: url(#Gradiente_sem_nome_967-6);
      }

      .cls-5 {
        fill: url(#Gradiente_sem_nome_967);
      }

      .cls-6 {
        fill: url(#Gradiente_sem_nome_967-5);
      }

      .cls-7 {
        fill: url(#Gradiente_sem_nome_967-2);
      }
    </style>
    <linearGradient id="Gradiente_sem_nome_967" data-name="Gradiente sem nome 967" x1="41.34" y1="27.36" x2="32.08" y2="43.4" gradientUnits="userSpaceOnUse">
      <stop offset="0" stop-color="#009cd1"/>
      <stop offset=".87" stop-color="#0075be"/>
      <stop offset=".99" stop-color="#005b97"/>
    </linearGradient>
    <linearGradient id="Gradiente_sem_nome_967-2" data-name="Gradiente sem nome 967" x1="33.05" y1="15.92" x2="25.77" y2="28.52" xlink:href="#Gradiente_sem_nome_967"/>
    <linearGradient id="Gradiente_sem_nome_967-3" data-name="Gradiente sem nome 967" x1="23.1" y1="36.2" x2="15.89" y2="48.7" xlink:href="#Gradiente_sem_nome_967"/>
    <linearGradient id="Gradiente_sem_nome_967-4" data-name="Gradiente sem nome 967" x1="23.39" y1="25.28" x2="16.97" y2="36.41" xlink:href="#Gradiente_sem_nome_967"/>
    <linearGradient id="Gradiente_sem_nome_967-5" data-name="Gradiente sem nome 967" x1="37.73" y1="45.17" x2="35.59" y2="48.88" xlink:href="#Gradiente_sem_nome_967"/>
    <linearGradient id="Gradiente_sem_nome_967-6" data-name="Gradiente sem nome 967" x1="38.39" y1="34.01" x2="35.65" y2="38.76" xlink:href="#Gradiente_sem_nome_967"/>
    <linearGradient id="Gradiente_sem_nome_967-7" data-name="Gradiente sem nome 967" x1="38.39" y1="34.01" x2="35.65" y2="38.76" xlink:href="#Gradiente_sem_nome_967"/>
  </defs>
  <path class="cls-5" d="M36.68,44.6c-5.14,0-9.22-4.09-9.22-9.22,0-5.16,4.12-9.25,9.32-9.23,5.15.02,9.2,4.12,9.18,9.3-.02,5.11-4.12,9.15-9.28,9.15ZM36.7,40.94c2.61,0,4.45-2.67,3.42-5.07-.78-1.83-1.69-3.61-2.54-5.41-.16-.34-.43-.53-.82-.54-.4-.01-.71.15-.89.51-.88,1.85-1.83,3.66-2.6,5.55-.96,2.35.89,4.95,3.43,4.95Z"/>
  <path class="cls-7" d="M39.5,24.69c-1.89-.49-3.7-.48-5.6,0,0-.43,0-.75,0-1.07-.01-.85-.31-1.16-1.17-1.16-1.75,0-3.5,0-5.25,0-.83,0-1.66,0-2.5,0-.88.01-1.19.32-1.2,1.19,0,.66,0,.66-.65.66-1.46,0-2.91-.02-4.37.01-.47,0-.58-.16-.58-.6-.03-3.94,2.81-6.82,6.74-6.82,2.67,0,5.34,0,8.01,0,3.69,0,6.54,2.86,6.56,6.57,0,.38,0,.75,0,1.22Z"/>
  <path class="cls-1" d="M21.01,37.22c1.09,0,2.18,0,3.27,0,.22,0,.45.01.67.07.43.12.7.52.66.94-.04.44-.35.76-.8.83-.02,0-.03,0-.05,0-.97.11-.96.11-.97,1.09-.02,1.42.07,2.85-.11,4.25-.28,2.27-2.21,3.87-4.5,3.9-1.16.02-2.32,0-3.48,0-.81,0-1.15-.34-1.15-1.13,0-1.09,0-2.18,0-3.27,0-.78.33-1.1,1.11-1.11.68,0,1.35-.02,2.03,0,.41.01.6-.12.59-.56-.02-.88-.02-1.77,0-2.65,0-.37-.12-.56-.51-.52-.17.01-.35,0-.52-.01-.47-.05-.78-.36-.82-.8-.05-.47.21-.86.66-.98.2-.05.41-.06.62-.07,1.11,0,2.22,0,3.33,0Z"/>
  <path class="cls-2" d="M21,26.15c1.16,0,2.32,0,3.48,0,.72,0,1.15.36,1.14.92,0,.56-.44.92-1.14.95q-.69.03-.7.73c0,2.01,0,4.02,0,6.03,0,.62,0,.63-.64.63-1.46,0-2.91-.01-4.37,0-.42,0-.62-.14-.57-.57.01-.1.01-.21,0-.31-.04-.32-.04-.88-.15-.9-.48-.1-.99-.06-1.49-.04-.06,0-.14.21-.16.33-.04.25-.01.52-.07.77-.11.43-.51.71-.92.69-.44-.03-.85-.37-.86-.83-.03-1.3-.03-2.6,0-3.9,0-.46.42-.8.86-.82.42-.02.8.26.93.68.02.07.04.13.04.2.04.3.03.84.13.86.46.11.96.08,1.44.06.08,0,.22-.18.23-.28.02-1,.02-2.01,0-3.01,0-.11-.21-.27-.35-.32-.19-.06-.41-.01-.62-.05-.53-.09-.84-.47-.82-.97.02-.5.37-.86.92-.86,1.23-.02,2.46,0,3.69,0,0,0,0,0,0,0Z"/>
  <path class="cls-6" d="M39.45,46.16c0,.52.05.97-.01,1.41-.07.5-.44.74-.93.74-1.19.01-2.39.02-3.59,0-.61-.01-.92-.34-.94-.94-.01-.37,0-.75,0-1.19,1.86.39,3.62.42,5.47-.01Z"/>
  <path class="cls-4" d="M36.81,33.09c-.07,0-.13-.02-.2-.02-.57,1.29-1.19,2.56-1.69,3.87-.26.68.19,1.48.82,1.86.66.4,1.51.37,2.1-.1.61-.47.93-1.3.63-1.99-.51-1.23-1.1-2.42-1.66-3.63Z"/>
  <path class="cls-3" d="M36.81,33.09c.56,1.21,1.15,2.4,1.66,3.63.29.7-.03,1.52-.63,1.99-.59.46-1.43.5-2.1.1-.63-.39-1.08-1.19-.82-1.86.5-1.32,1.12-2.59,1.69-3.87.07,0,.13.02.2.02Z"/>
</svg>