<?xml version="1.0" encoding="UTF-8"?>
<svg id="Camada_3" data-name="Camada 3" xmlns="http://www.w3.org/2000/svg" xmlns:xlink="http://www.w3.org/1999/xlink" viewBox="0 0 60 60">
  <defs>
    <style>
      .cls-1 {
        fill: url(#Gradiente_sem_nome_967-3);
      }

      .cls-1, .cls-2, .cls-3, .cls-4, .cls-5, .cls-6, .cls-7, .cls-8, .cls-9, .cls-10, .cls-11, .cls-12 {
        stroke-width: 0px;
      }

      .cls-2 {
        fill: url(#Gradiente_sem_nome_967-4);
      }

      .cls-3 {
        fill: url(#Gradiente_sem_nome_967-7);
      }

      .cls-4 {
        fill: url(#Gradiente_sem_nome_967-6);
      }

      .cls-5 {
        fill: url(#Gradiente_sem_nome_967-11);
      }

      .cls-6 {
        fill: url(#Gradiente_sem_nome_967);
      }

      .cls-7 {
        fill: url(#Gradiente_sem_nome_967-5);
      }

      .cls-8 {
        fill: url(#Gradiente_sem_nome_967-2);
      }

      .cls-9 {
        fill: url(#Gradiente_sem_nome_967-10);
      }

      .cls-10 {
        fill: url(#Gradiente_sem_nome_967-9);
      }

      .cls-11 {
        fill: url(#Gradiente_sem_nome_967-12);
      }

      .cls-12 {
        fill: url(#Gradiente_sem_nome_967-8);
      }
    </style>
    <linearGradient id="Gradiente_sem_nome_967" data-name="Gradiente sem nome 967" x1="40.24" y1="9.47" x2="18.77" y2="46.66" gradientUnits="userSpaceOnUse">
      <stop offset="0" stop-color="#009cd1"/>
      <stop offset=".87" stop-color="#0075be"/>
      <stop offset=".99" stop-color="#005b97"/>
    </linearGradient>
    <linearGradient id="Gradiente_sem_nome_967-2" data-name="Gradiente sem nome 967" x1="35.55" y1="6.76" x2="23.49" y2="27.65" xlink:href="#Gradiente_sem_nome_967"/>
    <linearGradient id="Gradiente_sem_nome_967-3" data-name="Gradiente sem nome 967" x1="27.93" y1="24.45" x2="17.4" y2="42.69" xlink:href="#Gradiente_sem_nome_967"/>
    <linearGradient id="Gradiente_sem_nome_967-4" data-name="Gradiente sem nome 967" x1="43.92" y1="24.42" x2="33.39" y2="42.65" xlink:href="#Gradiente_sem_nome_967"/>
    <linearGradient id="Gradiente_sem_nome_967-5" data-name="Gradiente sem nome 967" x1="33.91" y1="34.37" x2="32.15" y2="37.42" xlink:href="#Gradiente_sem_nome_967"/>
    <linearGradient id="Gradiente_sem_nome_967-6" data-name="Gradiente sem nome 967" x1="17.94" y1="38.38" x2="16.17" y2="41.45" xlink:href="#Gradiente_sem_nome_967"/>
    <linearGradient id="Gradiente_sem_nome_967-7" data-name="Gradiente sem nome 967" x1="33.89" y1="30.43" x2="32.15" y2="33.46" xlink:href="#Gradiente_sem_nome_967"/>
    <linearGradient id="Gradiente_sem_nome_967-8" data-name="Gradiente sem nome 967" x1="17.92" y1="34.39" x2="16.18" y2="37.42" xlink:href="#Gradiente_sem_nome_967"/>
    <linearGradient id="Gradiente_sem_nome_967-9" data-name="Gradiente sem nome 967" x1="33.9" y1="38.41" x2="32.14" y2="41.45" xlink:href="#Gradiente_sem_nome_967"/>
    <linearGradient id="Gradiente_sem_nome_967-10" data-name="Gradiente sem nome 967" x1="33.9" y1="42.36" x2="32.25" y2="45.22" xlink:href="#Gradiente_sem_nome_967"/>
    <linearGradient id="Gradiente_sem_nome_967-11" data-name="Gradiente sem nome 967" x1="17.93" y1="42.37" x2="16.29" y2="45.23" xlink:href="#Gradiente_sem_nome_967"/>
    <linearGradient id="Gradiente_sem_nome_967-12" data-name="Gradiente sem nome 967" x1="17.89" y1="30.44" x2="16.15" y2="33.45" xlink:href="#Gradiente_sem_nome_967"/>
  </defs>
  <path class="cls-6" d="M30.02,12.94c-5.15,0-10.3,0-15.46,0-.19,0-.38,0-.56,0-.57.04-.96.39-.98.96-.03.69-.03,1.39,0,2.08.02.56.44.97.96,1,.48.03.93-.33,1.04-.85.05-.24.04-.48.04-.73,0-.28.13-.41.41-.41,1.7,0,3.41,0,5.11,0,.28,0,.41.12.41.41,0,.34-.02.68,0,1.01.03.42-.12.61-.56.73-2.71.71-4.46,2.42-5.21,5.13-.17.6-.09.7.53.7,4.18,0,8.36,0,12.53,0,.6,0,.66-.08.5-.67-.66-2.49-2.21-4.16-4.64-5.01-1.11-.39-1.12-.37-1.11-1.53q0-.76.79-.76c3.92,0,7.83,0,11.75,0,1.4,0,1.39,0,1.39,1.4,0,.46-.15.63-.6.75-2.7.73-4.44,2.46-5.17,5.17-.15.58-.09.65.52.65,4.18,0,8.36,0,12.53,0,.59,0,.67-.11.52-.67-.66-2.46-2.18-4.13-4.58-5-.38-.14-.92-.17-1.09-.45-.2-.31-.09-.83-.09-1.26,0-.58.02-.61.6-.61,1.44,0,2.89,0,4.33,0q.93,0,1.01.94c.06.62.49,1.06,1.03,1.05.58,0,.99-.46,1-1.13.01-.51,0-1.01,0-1.52,0-1.09-.3-1.39-1.41-1.39-5.19,0-10.38,0-15.57,0ZM29.01,34.72h0c0-3.05,0-6.11,0-9.16,0-.41-.05-.68-.56-.67-4.29.01-8.58,0-12.87,0-.41,0-.57.15-.56.56.02.9,0,1.8,0,2.7q0,.79.82.79c1.33,0,2.66,0,3.99,0,.77,0,1.12.38,1.15,1.15,0,.19,0,.37,0,.56,0,4.52,0,9.03,0,13.55,0,.68.02.7.69.7,1.99,0,3.97,0,5.96,0,1.09,0,1.36-.27,1.36-1.36,0-2.94,0-5.88,0-8.83ZM44.98,34.68h0c0-3.05,0-6.1,0-9.16,0-.58-.04-.64-.59-.64-4.27,0-8.54,0-12.81,0-.43,0-.61.14-.6.59.02.94,0,1.87,0,2.81,0,.64.02.66.67.66,1.39,0,2.77,0,4.16,0,.76,0,1.12.38,1.14,1.15,0,.17,0,.34,0,.51,0,4.44,0,8.88,0,13.31q0,.99,1.02.99c1.82,0,3.63,0,5.45,0,1.33,0,1.54-.21,1.54-1.52,0-2.9,0-5.8,0-8.71ZM33.03,36.92h0c.21,0,.41,0,.62,0,1.59-.03,1.4.28,1.4-1.44,0-.55-.05-.59-.63-.59-.65,0-1.31-.01-1.96,0-1.69.03-1.44-.32-1.46,1.56,0,.37.17.49.52.48.5-.01,1.01,0,1.52,0ZM17.02,40.95c.52,0,1.05,0,1.57,0,.32,0,.49-.15.49-.48,0-.37,0-.75,0-1.12,0-.33-.11-.47-.47-.46-.71.03-1.42,0-2.13.01-1.67.03-1.44-.32-1.46,1.57,0,.33.15.48.48.47.51,0,1.01,0,1.52,0ZM33.07,30.92c-.21,0-.41,0-.62,0-1.68.03-1.43-.28-1.46,1.5,0,.43.19.55.58.54.69-.01,1.38,0,2.07,0,1.57-.02,1.4.26,1.41-1.51,0-.38-.14-.55-.53-.53-.48.02-.97,0-1.46,0ZM17.01,36.92h0c.22,0,.45,0,.67,0,1.57-.04,1.39.33,1.4-1.51,0-.37-.16-.54-.54-.54-.69.01-1.38,0-2.07,0-1.66.03-1.43-.32-1.44,1.57,0,.33.15.47.47.47.5,0,1.01,0,1.51,0ZM33.05,38.91c-.5,0-1.01.01-1.51,0-.37-.01-.56.13-.54.52.02.34.01.67,0,1.01-.01.34.12.52.48.52,1.03,0,2.05,0,3.08,0,.36,0,.5-.19.49-.52,0-.34-.01-.67,0-1.01.01-.39-.18-.53-.55-.51-.48.02-.97,0-1.46,0ZM33.06,42.86c-.37,0-.75,0-1.12,0-.98,0-.99.01-.94,1.01.03.67.35,1.01,1,1.03.86.02,1.72,0,2.57,0,.33,0,.48-.14.48-.46,0-.35-.01-.71,0-1.06.01-.39-.17-.53-.54-.52-.48.02-.97,0-1.45,0ZM17.02,42.86c-.5,0-1.01,0-1.51,0-.33,0-.49.13-.48.47,0,.17,0,.34,0,.5.03.72.36,1.05,1.09,1.07.52.01,1.05.01,1.57,0,1.57-.03,1.4.33,1.4-1.51,0-.02,0-.04,0-.06,0-.32-.16-.48-.49-.47-.52,0-1.05,0-1.57,0ZM17.04,32.97h0c.17,0,.34,0,.51,0,1.68-.04,1.44.31,1.46-1.57,0-.02,0-.04,0-.06,0-.28-.14-.41-.41-.41-1.05,0-2.1,0-3.15,0-.28,0-.41.13-.41.41,0,.37,0,.75,0,1.12-.01.36.15.51.5.5.51,0,1.01,0,1.52,0Z"/>
  <path class="cls-8" d="M30.02,12.94c5.19,0,10.38,0,15.57,0,1.1,0,1.4.3,1.41,1.39,0,.51,0,1.01,0,1.52-.02.67-.43,1.12-1,1.13-.55,0-.98-.43-1.03-1.05q-.09-.94-1.01-.94c-1.44,0-2.89,0-4.33,0-.57,0-.6.02-.6.61,0,.43-.11.95.09,1.26.17.27.71.31,1.09.45,2.4.86,3.92,2.54,4.58,5,.15.56.07.67-.52.67-4.18,0-8.36,0-12.53,0-.61,0-.68-.07-.52-.65.72-2.72,2.46-4.44,5.17-5.17.46-.12.6-.3.6-.75,0-1.4,0-1.4-1.39-1.4-3.92,0-7.83,0-11.75,0q-.78,0-.79.76c0,1.16,0,1.15,1.11,1.53,2.43.85,3.98,2.52,4.64,5.01.16.59.1.67-.5.67-4.18,0-8.36,0-12.53,0-.62,0-.7-.1-.53-.7.75-2.71,2.49-4.43,5.21-5.13.44-.12.59-.3.56-.73-.02-.34-.01-.67,0-1.01,0-.28-.13-.41-.41-.41-1.7,0-3.41,0-5.11,0-.28,0-.41.12-.41.41,0,.24,0,.49-.04.73-.11.52-.56.88-1.04.85-.52-.03-.94-.43-.96-1-.03-.69-.03-1.39,0-2.08.02-.56.41-.92.98-.96.19-.01.37,0,.56,0,5.15,0,10.3,0,15.46,0Z"/>
  <path class="cls-1" d="M29.01,34.72c0,2.94,0,5.88,0,8.83,0,1.09-.27,1.36-1.36,1.36-1.99,0-3.97,0-5.96,0-.67,0-.69-.02-.69-.7,0-4.52,0-9.03,0-13.55,0-.19,0-.37,0-.56-.03-.77-.38-1.14-1.15-1.15-1.33-.02-2.66,0-3.99,0q-.82,0-.82-.79c0-.9.01-1.8,0-2.7,0-.41.15-.57.56-.56,4.29,0,8.58,0,12.87,0,.51,0,.56.27.56.67,0,3.05,0,6.11,0,9.16h0Z"/>
  <path class="cls-2" d="M44.98,34.68c0,2.9,0,5.8,0,8.71,0,1.31-.21,1.52-1.54,1.52-1.82,0-3.63,0-5.45,0q-1.02,0-1.02-.99c0-4.44,0-8.88,0-13.31,0-.17,0-.34,0-.51-.02-.77-.38-1.14-1.14-1.15-1.39-.01-2.77,0-4.16,0-.64,0-.66-.02-.67-.66,0-.94.01-1.87,0-2.81-.01-.45.17-.59.6-.59,4.27,0,8.54,0,12.81,0,.54,0,.59.05.59.64,0,3.05,0,6.1,0,9.16h0Z"/>
  <path class="cls-7" d="M33.03,36.92c-.51,0-1.01,0-1.52,0-.34,0-.52-.11-.52-.48.02-1.87-.23-1.52,1.46-1.56.65-.01,1.31,0,1.96,0,.58,0,.63.05.63.59,0,1.72.19,1.41-1.4,1.44-.21,0-.41,0-.62,0h0Z"/>
  <path class="cls-4" d="M17.02,40.95c-.51,0-1.01,0-1.52,0-.33,0-.48-.14-.48-.47.01-1.89-.21-1.54,1.46-1.57.71-.01,1.42.01,2.13-.01.35-.01.47.13.47.46,0,.37,0,.75,0,1.12,0,.32-.16.48-.49.48-.52,0-1.05,0-1.57,0Z"/>
  <path class="cls-3" d="M33.07,30.92c.49,0,.97.01,1.46,0,.39-.01.53.16.53.53-.01,1.77.16,1.49-1.41,1.51-.69,0-1.38,0-2.07,0-.39,0-.58-.11-.58-.54.03-1.79-.22-1.47,1.46-1.5.21,0,.41,0,.62,0Z"/>
  <path class="cls-12" d="M17.01,36.92c-.5,0-1.01,0-1.51,0-.33,0-.48-.13-.47-.47.02-1.9-.22-1.54,1.44-1.57.69-.01,1.38,0,2.07,0,.38,0,.54.16.54.54,0,1.84.17,1.47-1.4,1.51-.22,0-.45,0-.67,0h0Z"/>
  <path class="cls-10" d="M33.05,38.91c.49,0,.97.01,1.46,0,.37-.01.56.12.55.51-.01.34,0,.67,0,1.01,0,.34-.13.53-.49.52-1.03,0-2.05,0-3.08,0-.37,0-.5-.18-.48-.52.01-.34.02-.67,0-1.01-.02-.39.17-.53.54-.52.5.01,1.01,0,1.51,0Z"/>
  <path class="cls-9" d="M33.06,42.86c.48,0,.97.01,1.45,0,.37-.01.56.13.54.52-.01.35,0,.71,0,1.06,0,.33-.15.47-.48.46-.86,0-1.72.01-2.57,0-.65-.02-.97-.36-1-1.03-.05-1-.04-1.01.94-1.01.37,0,.75,0,1.12,0Z"/>
  <path class="cls-5" d="M17.02,42.86c.52,0,1.05,0,1.57,0,.33,0,.49.15.49.47,0,.02,0,.04,0,.06,0,1.84.17,1.48-1.4,1.51-.52.01-1.05.01-1.57,0-.73-.02-1.06-.34-1.09-1.07,0-.17,0-.34,0-.5-.01-.33.15-.47.48-.47.5,0,1.01,0,1.51,0Z"/>
  <path class="cls-11" d="M17.04,32.97c-.51,0-1.01,0-1.52,0-.35,0-.52-.14-.5-.5.01-.37,0-.75,0-1.12,0-.28.14-.41.41-.41,1.05,0,2.1,0,3.15,0,.28,0,.41.14.41.41,0,.02,0,.04,0,.06-.01,1.88.23,1.53-1.46,1.57-.17,0-.34,0-.51,0h0Z"/>
</svg>