<?xml version="1.0" encoding="UTF-8"?>
<svg id="Camada_3" data-name="Camada 3" xmlns="http://www.w3.org/2000/svg" xmlns:xlink="http://www.w3.org/1999/xlink" viewBox="0 0 60 60">
  <defs>
    <style>
      .cls-1 {
        fill: url(#Gradiente_sem_nome_967-3);
      }

      .cls-1, .cls-2, .cls-3, .cls-4 {
        stroke-width: 0px;
      }

      .cls-2 {
        fill: url(#Gradiente_sem_nome_967-4);
      }

      .cls-3 {
        fill: url(#Gradiente_sem_nome_967);
      }

      .cls-4 {
        fill: url(#Gradiente_sem_nome_967-2);
      }
    </style>
    <linearGradient id="Gradiente_sem_nome_967" data-name="Gradiente sem nome 967" x1="38.91" y1="19.95" x2="26.67" y2="41.14" gradientUnits="userSpaceOnUse">
      <stop offset="0" stop-color="#009cd1"/>
      <stop offset=".87" stop-color="#0075be"/>
      <stop offset=".99" stop-color="#005b97"/>
    </linearGradient>
    <linearGradient id="Gradiente_sem_nome_967-2" data-name="Gradiente sem nome 967" x1="24.51" y1="20.21" x2="13.08" y2="39.99" xlink:href="#Gradiente_sem_nome_967"/>
    <linearGradient id="Gradiente_sem_nome_967-3" data-name="Gradiente sem nome 967" x1="27.75" y1="41.75" x2="23.35" y2="49.37" xlink:href="#Gradiente_sem_nome_967"/>
    <linearGradient id="Gradiente_sem_nome_967-4" data-name="Gradiente sem nome 967" x1="46.47" y1="28.23" x2="43.89" y2="32.7" xlink:href="#Gradiente_sem_nome_967"/>
  </defs>
  <path class="cls-3" d="M26.11,40.82v-21c.21-.01.42-.04.63-.04,3.6,0,7.19,0,10.79,0,2.13,0,3.65,1.5,3.67,3.63.02,2.09,0,4.17,0,6.26,0,2.5.01,5,0,7.51,0,1.34-.52,2.43-1.69,3.16-.53.33-1.12.52-1.75.53-3.75.01-7.51,0-11.26,0-.1,0-.2-.02-.38-.04ZM34.01,31.36c-.16.35-.24.54-.34.73-.32.64-.66,1.27-.95,1.92-.31.7-.05,1.33.61,1.55.48.16.99-.04,1.28-.61.7-1.36,1.37-2.73,2.05-4.1.04-.07.06-.15.08-.22.18-.65-.24-1.26-.9-1.33-.22-.02-.44,0-.65-.01-.61,0-1.22,0-1.93,0,.22-.46.4-.83.58-1.2.25-.52.53-1.02.75-1.55.23-.55,0-1.13-.5-1.37-.48-.24-1.01-.09-1.35.4-.1.15-.18.31-.26.47-.43.85-.85,1.7-1.28,2.55-.2.41-.42.81-.61,1.23-.35.8.09,1.49.96,1.53.26.01.52,0,.77,0,.51,0,1.02,0,1.68,0Z"/>
  <path class="cls-4" d="M23.87,40.83c-.25.01-.47.03-.68.03-2.5,0-5.01,0-7.51,0-2.16,0-3.67-1.52-3.67-3.68,0-4.59,0-9.18,0-13.76,0-2.13,1.52-3.64,3.64-3.65,2.54,0,5.09,0,7.63,0,.18,0,.35,0,.48,0,.06.06.08.07.09.09.01.01.03.03.04.04.02.08.05.15.05.23,0,6.77,0,13.54,0,20.32,0,.1-.03.19-.05.38ZM17.99,27.16c-.58,0-1.15-.01-1.73,0-.67.02-1.05.4-1.06,1.03-.01.59.4,1.07,1.02,1.09,1.17.03,2.34.03,3.51,0,.62-.02,1.08-.53,1.07-1.07-.01-.59-.48-1.03-1.15-1.04-.56-.01-1.11,0-1.67,0ZM17.96,33.48c.58,0,1.15.01,1.73,0,.61-.02,1.04-.4,1.11-.95.06-.52-.32-1-.92-1.13-.17-.04-.35-.05-.53-.05-.91,0-1.82,0-2.74,0-.16,0-.32,0-.47.03-.64.12-.98.55-.93,1.17.05.58.43.92,1.09.93.56.01,1.11,0,1.67,0ZM17.97,35.62s0,0,0,0c-.6,0-1.19-.02-1.79,0-.62.03-.98.43-.98,1.04,0,.64.38,1.04,1.17,1.07,1.09.04,2.18.04,3.27,0,.31-.01.66-.19.89-.4.28-.26.38-.65.2-1.04-.18-.39-.47-.65-.91-.66-.61-.02-1.23,0-1.85,0ZM18.02,25.03s0,0,0,0c.57,0,1.15.01,1.72,0,.59-.02,1.04-.46,1.05-1,0-.57-.49-1.07-1.06-1.06-1.15.03-2.3,0-3.45.01-.69,0-1.07.38-1.08,1,0,.66.38,1.04,1.09,1.05.57.01,1.15,0,1.72,0Z"/>
  <path class="cls-1" d="M21.27,48.17v-1.95c-.29-.02-.52-.03-.74-.05-.23-.03-.48-.04-.7-.11-.48-.17-.73-.61-.68-1.07.06-.48.45-.87.94-.94.16-.02.32-.01.48-.01,3.51,0,7.02,0,10.53,0,.16,0,.32,0,.48.02.5.07.89.48.92.95.04.53-.26.99-.79,1.1-.4.09-.82.08-1.32.13,0,.49,0,.95-.01,1.42-.01.55-.03.58-.57.58-2.66,0-5.32,0-7.97,0-.15,0-.31-.03-.56-.06Z"/>
  <path class="cls-2" d="M43.38,32.4v-4.11c.17-.03.3-.07.43-.07.71,0,1.43-.02,2.14,0,1.13.03,2.03.96,2.04,2.07,0,1.11-.89,2.07-2.01,2.1-.85.02-1.7,0-2.61,0Z"/>
</svg>