<?xml version="1.0" encoding="UTF-8"?>
<svg id="Camada_3" data-name="Camada 3" xmlns="http://www.w3.org/2000/svg" viewBox="0 0 60 60">
  <defs>
    <style>
      .cls-1 {
        fill: #fff;
        stroke-width: 0px;
      }
    </style>
  </defs>
  <path class="cls-1" d="M22.09,43.96c0,.35.13.6.39.81.21.17.45.17.7.17,5.73,0,11.46,0,17.19,0,.08,0,.17,0,.25,0,.28-.02.5-.14.64-.39.16-.26.2-.54.2-.85,0-3.99,0-7.97,0-11.96h0c0-3.94,0-7.87,0-11.81,0-.13,0-.26,0-.4-.02-.48-.31-.85-.77-.96-.14-.03-.29-.02-.44-.03q-.66,0-.66.64c0,6.23,0,12.45,0,18.68,0,.13-.02.27.01.39.16.68.07,1.38.07,2.06,0,.32-.06.65-.15.97-.31,1.12-1.32,1.87-2.49,1.87-4.73,0-9.45,0-14.18,0-.88,0-.74-.14-.77.8Z"/>
  <g>
    <path class="cls-1" d="M37.63,15.3c-.17-.17-.38-.23-.63-.23-3.67,0-7.35,0-11.02,0-.03,0-.07,0-.1,0-.32.02-.32.02-.34.35,0,.12,0,.23,0,.35,0,1.8,0,3.59,0,5.39,0,.56-.35.92-.91.94-.1,0-.2,0-.3,0-1.73,0-3.46,0-5.19,0-.67,0-.63-.07-.63.6,0,5.81,0,11.63,0,17.44,0,.1,0,.2,0,.3.04.6.45.99,1.05,1.04.1,0,.2,0,.3,0,5.6,0,11.2,0,16.8,0,.91,0,1.23-.31,1.23-1.2,0-4,0-8.01,0-12.01h0c0-3.97,0-7.94,0-11.91,0-.15-.01-.3,0-.44.02-.26-.12-.44-.28-.6ZM28.97,33.92c-.3.36-.63.71-.95,1.06-.08.08-.2.12-.3.17-.5.23-1,.04-1.14-.48-.08-.28-.2-.32-.44-.32-.69.01-1.38,0-2.07,0-.95,0-1.63-.57-1.88-1.49-.1-.37-.08-.71.02-1.06.09-.31.17-.35.45-.22.28.13.56.27.83.41.18.09.42.14.35.45-.01.05.18.21.28.22.74.02,1.48.01,2.22.01.15,0,.17-.11.21-.22.24-.7.89-.87,1.42-.37.3.28.58.58.87.87.16.16.26.34.27.64-.03.07-.05.23-.14.34ZM29.61,26.44c-.24-.03-.41-.18-.55-.37-.21-.28-.47-.43-.84-.42-.34,0-.6.1-.77.42-.15.29-.33.56-.5.85-.09.15-.09.27.04.44.47.6.25,1.22-.48,1.44-.35.1-.69.19-1.04.28-.42.11-.82-.03-.98-.44-.18-.47-.3-.97-.4-1.46-.12-.55.34-1,.97-.9.26.12.4-.05.53-.33.16-.34.36-.66.58-.97.82-1.15,2.38-1.43,3.62-.57.27.19.49.43.67.71.21.31.21.66.02.98-.19.33-.51.4-.86.36ZM34.09,33.38c-.39.67-.99.98-1.76.97-.05,0-.1,0-.15,0h0c-.16,0-.33.01-.49,0-.41-.04-.78-.43-.79-.81-.01-.4.37-.82.8-.85.2-.02.39,0,.59,0,.36-.02.46-.16.29-.47-.35-.63-.72-1.25-1.08-1.88-.07-.13-.16-.12-.29-.09-.74.14-1.21-.35-1.03-1.08.09-.35.18-.7.28-1.04.16-.54.5-.77,1.03-.67.43.08.87.19,1.28.34.59.22.75.82.36,1.31-.17.22-.14.38-.02.57.31.54.6,1.09.93,1.62.43.69.48,1.39.07,2.09Z"/>
    <path class="cls-1" d="M19.44,20.42c1.37,0,2.73,0,4.1,0,.32,0,.34-.01.34-.34,0-.69,0-1.38,0-2.07h0c0-.53,0-1.05,0-1.58,0-.23,0-.46-.01-.69,0-.02-.1-.07-.12-.06-.07.04-.12.11-.18.16-1.4,1.4-2.79,2.79-4.19,4.19-.06.06-.12.11-.17.18-.08.11-.04.18.09.2.05,0,.1,0,.15,0Z"/>
  </g>
</svg>