<?xml version="1.0" encoding="UTF-8"?>
<svg id="Camada_3" data-name="Camada 3" xmlns="http://www.w3.org/2000/svg" xmlns:xlink="http://www.w3.org/1999/xlink" viewBox="0 0 60 60">
  <defs>
    <style>
      .cls-1 {
        fill: url(#Gradiente_sem_nome_967-3);
      }

      .cls-1, .cls-2, .cls-3 {
        stroke-width: 0px;
      }

      .cls-2 {
        fill: url(#Gradiente_sem_nome_967);
      }

      .cls-3 {
        fill: url(#Gradiente_sem_nome_967-2);
      }
    </style>
    <linearGradient id="Gradiente_sem_nome_967" data-name="Gradiente sem nome 967" x1="40.02" y1="13.97" x2="21.1" y2="46.74" gradientUnits="userSpaceOnUse">
      <stop offset="0" stop-color="#009cd1"/>
      <stop offset=".87" stop-color="#0075be"/>
      <stop offset=".99" stop-color="#005b97"/>
    </linearGradient>
    <linearGradient id="Gradiente_sem_nome_967-2" data-name="Gradiente sem nome 967" x1="19.37" y1="15.74" x2="7.27" y2="36.7" xlink:href="#Gradiente_sem_nome_967"/>
    <linearGradient id="Gradiente_sem_nome_967-3" data-name="Gradiente sem nome 967" x1="44.18" y1="37.06" x2="40.5" y2="43.43" xlink:href="#Gradiente_sem_nome_967"/>
  </defs>
  <path class="cls-2" d="M32.28,17.55c4.42,0,8.83,0,13.25,0,1.15,0,1.47.32,1.47,1.48,0,5.44,0,10.88,0,16.32,0,.84,0,.84-.83.84-2.04,0-4.09,0-6.13,0-.94,0-1.25.32-1.26,1.25,0,2.08,0,4.17,0,6.25,0,.7-.03.72-.71.72-6.56,0-13.12.01-19.67,0-1.72,0-3.08-.74-3.86-2.3-.75-1.5-.62-3,.37-4.37.6-.83,1.43-1.34,2.43-1.55.86-.18.82-.02.82-1.04,0-5.57,0-11.15,0-16.72q0-.88.89-.88c4.42,0,8.83,0,13.25,0ZM31.6,21.75c-3.28,0-6.56,0-9.84,0-1.21,0-1.5.29-1.5,1.5,0,5.15,0,10.3,0,15.45,0,.17,0,.35.01.52.07.58.43.98,1.02.99,1.35.03,2.7.03,4.05,0,.62-.01.99-.39,1.01-.97.03-.71.03-1.43,0-2.14-.03-.58-.43-.91-.99-.9-.54.01-.89.34-.94.9q-.11,1.1-1.22,1.1c-.06,0-.12,0-.17,0-.7,0-.73-.02-.73-.7,0-.89,0-1.77,0-2.66,0-.82,0-.82.85-.82,2.74,0,5.48,0,8.22,0,.84,0,1.15-.32,1.16-1.16.01-1.02,0-2.04,0-3.07,0-.96.01-1.93,0-2.89-.01-.65-.37-.99-.96-.99-.61,0-.98.39-.99,1.1-.01,1.49-.02,2.97,0,4.46,0,.41-.13.59-.56.59-2.39-.01-4.78-.01-7.17,0-.4,0-.55-.16-.54-.55.01-1,.02-2.01,0-3.01-.01-.47.15-.65.63-.64,1.41.02,2.82.01,4.22,0,.81,0,1.3-.38,1.29-1,0-.64-.44-.96-1.31-.96-1.14,0-2.28,0-3.41,0-1.67-.01-1.4.18-1.42-1.4-.01-.77,0-.78.77-.78,3.61,0,7.21,0,10.82,0,.82,0,.82.01.83.85,0,1.43,0,2.85,0,4.28,0,.66.47,1.1,1.04,1.06.55-.05.91-.47.91-1.14,0-1.49.02-2.97,0-4.46,0-.46.17-.61.61-.6.98.02,1.97.03,2.95,0,.52-.02.66.19.65.68-.02,2.33-.02,4.67,0,7,0,.5-.16.68-.66.67-1.43-.03-2.85-.01-4.28,0-.9,0-1.21.31-1.21,1.23,0,1.25,0,2.51,0,3.76,0,1.32.06,1.16-1.14,1.16-.97,0-1.05.15-1.04-.98,0-.66-.35-1.01-.93-1.01-.61,0-.99.34-1.01,1.01-.02.58-.02,1.16,0,1.74.01.91.36,1.27,1.26,1.28,1.2.01,2.39.01,3.59,0,.9,0,1.25-.38,1.26-1.28,0-1.43.02-2.85,0-4.28-.01-.51.18-.67.67-.66,1.37.02,2.74,0,4.11,0,1.11,0,1.37-.26,1.37-1.35,0-3.18,0-6.37,0-9.55,0-1.1-.27-1.36-1.37-1.36-3.28,0-6.56,0-9.84,0Z"/>
  <path class="cls-3" d="M12,39.43c0-.22,0-.44,0-.66,0-7.36,0-14.73,0-22.09,0-1.74,1.07-2.99,2.76-3.24.81-.12,1.36.31,1.43,1.12.01.15,0,.31,0,.46,0,6.21,0,12.41,0,18.62,0,.55-.16.83-.68,1.09-1.95.96-3.07,2.56-3.52,4.7Z"/>
  <path class="cls-1" d="M40.74,43.57c0-.43,0-.89,0-1.34,0-1.15,0-2.31,0-3.46,0-.34.04-.61.49-.6,1.62.01,3.23,0,4.85.01.05,0,.1.03.05.02-1.76,1.76-3.56,3.55-5.39,5.38Z"/>
</svg>