<?xml version="1.0" encoding="UTF-8"?>
<svg id="Camada_5" data-name="Camada 5" xmlns="http://www.w3.org/2000/svg" xmlns:xlink="http://www.w3.org/1999/xlink" viewBox="0 0 60 60">
  <defs>
    <style>
      .cls-1 {
        fill: url(#Gradiente_sem_nome_967-3);
      }

      .cls-1, .cls-2, .cls-3 {
        stroke-width: 0px;
      }

      .cls-2 {
        fill: url(#Gradiente_sem_nome_967);
      }

      .cls-3 {
        fill: url(#Gradiente_sem_nome_967-2);
      }
    </style>
    <linearGradient id="Gradiente_sem_nome_967" data-name="Gradiente sem nome 967" x1="36.73" y1="17.61" x2="20.68" y2="45.4" gradientUnits="userSpaceOnUse">
      <stop offset="0" stop-color="#009cd1"/>
      <stop offset=".87" stop-color="#0075be"/>
      <stop offset=".99" stop-color="#005b97"/>
    </linearGradient>
    <linearGradient id="Gradiente_sem_nome_967-2" data-name="Gradiente sem nome 967" x1="36.73" y1="17.61" x2="23.81" y2="39.99" xlink:href="#Gradiente_sem_nome_967"/>
    <linearGradient id="Gradiente_sem_nome_967-3" data-name="Gradiente sem nome 967" x1="34.91" y1="29.63" x2="24.52" y2="47.62" xlink:href="#Gradiente_sem_nome_967"/>
  </defs>
  <path class="cls-2" d="M38.45,33.35c.23,0,.42,0,.61,0,1.45,0,2.91,0,4.36,0,.52,0,.51,0,.53.51.01.24.03.48.09.71.1.36.46.6.81.61.38,0,.73-.24.85-.62.06-.19.07-.4.07-.61,0-3.44,0-6.88,0-10.31,0-.14,0-.28-.02-.41-.1-.57-.58-.88-1.14-.74-.38.09-.63.45-.67.93-.02.25-.03.5-.04.82-.26,0-.48,0-.7,0-3.1,0-6.19,0-9.29,0-.83,0-.83,0-.9-.82-.04-.54-.37-1.01-1.03-.97-.25.01-.5-.02-.76-.03v-1.81c.24,0,.42,0,.61,0,1.18,0,2.36,0,3.54,0,.19,0,.38,0,.56-.05.44-.11.71-.47.69-.9-.01-.44-.34-.8-.8-.87-.13-.02-.27-.01-.41-.01-3.44,0-6.87,0-10.31,0-.14,0-.28,0-.41.01-.45.06-.78.43-.8.87-.01.43.25.79.69.9.18.04.37.05.56.05,1.2,0,2.39,0,3.59,0,.18,0,.36.02.57.04v1.78c-.32.01-.63.02-.93.04-.43.03-.7.24-.81.66-.05.18-.06.37-.06.56-.02.55-.01.56-.59.56-3.25,0-6.5,0-9.75,0-.18,0-.36-.03-.6-.05,0-.33.03-.6,0-.87-.08-.66-.62-1.01-1.21-.82-.38.12-.59.47-.6,1.03,0,3.51,0,7.01,0,10.52,0,.17.02.34.07.5.12.39.47.63.85.62.35,0,.7-.25.81-.61.06-.23.08-.47.09-.71.02-.5.02-.51.53-.51,1.45,0,2.91,0,4.36,0,.2,0,.4,0,.56,0,.06-.1.08-.13.09-.16.03-.15.07-.3.1-.45.6-2.95,2.34-4.95,5.09-6.11.64-.27,1.29-.34,1.95-.11.35.13.67.33,1.04.51.06-.04.14-.09.22-.15.79-.53,1.65-.66,2.54-.31,2.79,1.11,4.56,3.11,5.22,6.06.05.21.09.43.15.71ZM29.34,33.33c0-.25,0-.44,0-.62,0-1.13,0-2.26,0-3.39,0-.9-.56-1.28-1.39-.96-2.93,1.13-4.61,4.31-3.88,7.37.43,1.81,1.47,3.18,3.1,4.08.26.15.43.29.41.62-.02.54,0,1.09,0,1.64,0,2.17,0,4.34,0,6.52,0,.92.26,1.17,1.2,1.18.84,0,1.68,0,2.51,0,.24,0,.48.01.72,0,.61-.04.9-.34.92-.94,0-.17,0-.34,0-.51,0-2.53,0-5.06,0-7.59,0-.39.06-.7.47-.93,2.81-1.58,3.96-4.95,2.72-7.93-.71-1.7-1.95-2.87-3.66-3.52-.68-.26-1.24.13-1.28.86,0,.12,0,.24,0,.36,0,1.08,0,2.16,0,3.23,0,.18-.02.36-.04.56h-1.82Z"/>
  <path class="cls-3" d="M38.45,33.35c-.06-.28-.11-.5-.15-.71-.66-2.95-2.43-4.95-5.22-6.06-.89-.35-1.74-.22-2.54.31-.08.06-.17.11-.22.15-.37-.18-.69-.38-1.04-.51-.66-.24-1.31-.16-1.95.11-2.75,1.16-4.49,3.16-5.09,6.11-.03.15-.06.3-.1.45,0,.03-.03.06-.09.16-.16,0-.36,0-.56,0-1.45,0-2.91,0-4.36,0-.52,0-.51,0-.53.51-.01.24-.03.48-.09.71-.1.36-.46.6-.81.61-.38,0-.73-.24-.85-.62-.05-.16-.07-.34-.07-.5,0-3.51,0-7.01,0-10.52,0-.56.21-.91.6-1.03.6-.19,1.13.16,1.21.82.03.27,0,.54,0,.87.24.02.42.05.6.05,3.25,0,6.5,0,9.75,0,.57,0,.57,0,.59-.56,0-.19.01-.38.06-.56.11-.41.38-.63.81-.66.3-.02.6-.03.93-.04v-1.78c-.21-.01-.39-.04-.57-.04-1.2,0-2.39,0-3.59,0-.19,0-.38,0-.56-.05-.44-.11-.71-.46-.69-.9.01-.44.34-.8.8-.87.13-.02.27-.01.41-.01,3.44,0,6.87,0,10.31,0,.14,0,.28,0,.41.01.45.06.78.43.8.87.01.43-.25.79-.69.9-.18.04-.37.05-.56.05-1.18,0-2.36,0-3.54,0-.19,0-.37,0-.61,0v1.81c.26.01.51.05.76.03.66-.04.98.43,1.03.97.06.82.07.82.9.82,3.1,0,6.19,0,9.29,0,.22,0,.44,0,.7,0,.02-.32.02-.57.04-.82.04-.49.29-.84.67-.93.56-.14,1.04.17,1.14.74.02.13.02.27.02.41,0,3.44,0,6.88,0,10.31,0,.2-.01.41-.07.61-.11.39-.46.63-.85.62-.35,0-.7-.25-.81-.61-.06-.23-.08-.47-.09-.71-.02-.5-.02-.51-.53-.51-1.45,0-2.91,0-4.36,0-.19,0-.37,0-.61,0Z"/>
  <path class="cls-1" d="M29.34,33.33h1.82c.01-.2.04-.38.04-.56,0-1.08,0-2.15,0-3.23,0-.12,0-.24,0-.36.04-.73.59-1.12,1.28-.86,1.71.66,2.95,1.82,3.66,3.52,1.24,2.98.09,6.34-2.72,7.93-.41.23-.47.54-.47.93,0,2.53,0,5.06,0,7.59,0,.17,0,.34,0,.51-.02.6-.31.91-.92.94-.24.01-.48,0-.72,0-.84,0-1.68,0-2.51,0-.94,0-1.2-.26-1.2-1.18,0-2.17,0-4.34,0-6.52,0-.55-.02-1.09,0-1.64.01-.33-.15-.48-.41-.62-1.63-.9-2.66-2.27-3.1-4.08-.73-3.06.95-6.24,3.88-7.37.82-.32,1.38.07,1.39.96,0,1.13,0,2.26,0,3.39,0,.19,0,.37,0,.62Z"/>
</svg>