<?xml version="1.0" encoding="UTF-8"?>
<svg id="Camada_7" data-name="Camada 7" xmlns="http://www.w3.org/2000/svg" viewBox="0 0 60 60">
  <defs>
    <style>
      .cls-1 {
        fill: #fff;
        stroke-width: 0px;
      }
    </style>
  </defs>
  <path class="cls-1" d="M18.15,42.51c5.88,0,11.75,0,17.63,0,.7,0,.71,0,.71-.7,0-3.46,0-6.92,0-10.37h0c0-.32,0-.65,0-.97,0-3.12,0-6.23,0-9.35,0-1.69-1.07-2.88-2.59-2.88-4.64-.01-9.29,0-13.93,0-.83,0-1.5.37-2.01,1.02-.47.6-.57,1.29-.57,2.02.03,6.87.05,13.73.08,20.6,0,.63.02.65.67.65ZM33.35,32.7c-.07.45-.43.7-.96.69-.06,0-.13,0-.27,0,.07.34.13.62.17.91.5,3.22-1.76,6.09-5.01,6.33-.26.02-.59-.01-.78-.16-.2-.16-.4-.51-.36-.72.05-.27.32-.54.56-.71.2-.13.5-.11.76-.13,2.1-.2,3.7-2.53,3.14-4.55,0-.03-.04-.05-.1-.12-.07.14-.12.26-.18.38-.22.42-.62.59-1.07.44-.36-.12-.6-.53-.5-.95.2-.82.42-1.64.66-2.44.13-.44.56-.63,1.07-.5.72.18,1.45.37,2.17.57.51.14.77.51.7.96ZM20.92,22.77c0-.73.32-1.03,1.05-1.03,1.67,0,3.34,0,5.02,0s3.28,0,4.92,0c.72,0,1.04.3,1.05,1.03.01,1.4.02,2.79,0,4.19,0,.69-.34,1.01-1.03,1.01-3.33,0-6.66,0-9.98,0-.69,0-1.02-.31-1.03-1.01-.01-1.4-.01-2.79,0-4.19ZM21.38,36.98c.1,0,.19.01.36.02-.06-.37-.12-.71-.17-1.05-.44-2.81,1.55-5.61,4.35-6.09.32-.06.64-.1.96-.1.52,0,.85.33.88.8.03.41-.29.78-.78.83-.89.1-1.73.3-2.42.9-1.13.97-1.55,2.2-1.3,3.66,0,.06.05.11.12.26.2-.54.39-.95.97-.92.53.02.9.43.78.95-.19.82-.41,1.64-.65,2.44-.13.45-.5.67-.94.57-.82-.19-1.64-.41-2.45-.64-.42-.12-.63-.5-.57-.9.06-.41.4-.7.85-.72Z"/>
  <path class="cls-1" d="M35.81,44.17c-5.91,0-11.82,0-17.73,0-.32,0-.65.03-.97.09-.78.15-1.32.76-1.38,1.55-.02.21,0,.42,0,.63,0,.94.28,1.22,1.22,1.22,3.33,0,6.66,0,9.99,0s6.56,0,9.84,0c.18,0,.36,0,.54-.01.46-.05.77-.36.83-.81.23-1.82-.51-2.68-2.33-2.68Z"/>
  <path class="cls-1" d="M43.18,24.61c-.33-.07-.68-.02-1.02-.08-.14-.02-.35-.15-.38-.26-.35-1.44.78-2.97,2.28-3.11.19-.02.39-.04.57-.11.39-.14.59-.52.54-.94-.05-.42-.34-.71-.78-.73-.32-.01-.65,0-.97.06-2.03.42-3.44,2.14-3.44,4.21,0,4.66,0,9.32,0,13.98,0,.98-.26,1.24-1.23,1.26-.59,0-.61.03-.62.6,0,.1,0,.19,0,.29h0c0,.18-.04.37.01.53.05.13.21.31.32.32.42.02.85.04,1.26-.06,1.25-.3,2-1.32,2.01-2.7,0-2.42,0-4.84,0-7.26,0-.98-.02-.86.87-.88,1.28-.02,2.41-1.02,2.54-2.25.14-1.38-.69-2.6-1.99-2.89ZM43.13,27.72c-.22.22-1.01.42-1.16.2-.17-.25-.18-.64-.2-.97,0-.2.08-.42.19-.59.05-.08.27-.03.42-.05.42-.02.77.08.94.52.14.34.06.63-.19.88Z"/>
  <path class="cls-1" d="M23.06,26.33c2.58,0,5.16,0,7.74,0,.38,0,.52-.16.52-.53-.01-.62,0-1.23,0-1.85,0-.54-.04-.57-.59-.57-1.25,0-2.5,0-3.75,0-1.3,0-2.6,0-3.9,0-.38,0-.53.13-.52.51.02.65.01,1.3,0,1.95,0,.35.15.49.5.49Z"/>
</svg>