<?xml version="1.0" encoding="UTF-8"?>
<svg id="Camada_2" data-name="Camada 2" xmlns="http://www.w3.org/2000/svg" xmlns:xlink="http://www.w3.org/1999/xlink" viewBox="0 0 29.46 29.46">
  <defs>
    <style>
      .cls-1 {
        fill: url(#Gradiente_sem_nome_16-4);
      }

      .cls-1, .cls-2, .cls-3, .cls-4, .cls-5 {
        stroke-width: 0px;
      }

      .cls-2 {
        fill: url(#Gradiente_sem_nome_16-2);
      }

      .cls-3 {
        fill: url(#Gradiente_sem_nome_16);
      }

      .cls-4 {
        fill: url(#Gradiente_sem_nome_16-3);
      }

      .cls-5 {
        fill: url(#Gradiente_sem_nome_16-5);
      }
    </style>
    <linearGradient id="Gradiente_sem_nome_16" data-name="Gradiente sem nome 16" x1="1.67" y1="12.15" x2="20.76" y2="12.15" gradientUnits="userSpaceOnUse">
      <stop offset="0" stop-color="#1e9cd7"/>
      <stop offset=".87" stop-color="#0075be"/>
      <stop offset=".99" stop-color="#005b97"/>
    </linearGradient>
    <linearGradient id="Gradiente_sem_nome_16-2" data-name="Gradiente sem nome 16" x1="0" y1="27.7" x2="22.45" y2="27.7" xlink:href="#Gradiente_sem_nome_16"/>
    <linearGradient id="Gradiente_sem_nome_16-3" data-name="Gradiente sem nome 16" x1="22.41" y1="11.81" x2="29.46" y2="11.81" xlink:href="#Gradiente_sem_nome_16"/>
    <linearGradient id="Gradiente_sem_nome_16-4" data-name="Gradiente sem nome 16" x1="6.83" y1="6.64" x2="15.59" y2="6.64" xlink:href="#Gradiente_sem_nome_16"/>
    <linearGradient id="Gradiente_sem_nome_16-5" data-name="Gradiente sem nome 16" x1="6.83" y1="6.64" x2="15.59" y2="6.64" xlink:href="#Gradiente_sem_nome_16"/>
  </defs>
  <g id="Camada_7" data-name="Camada 7">
    <g>
      <path class="cls-3" d="M20.76,13.22c0,3.46,0,6.92,0,10.37,0,.7,0,.7-.71.7-5.88,0-11.75,0-17.63,0-.65,0-.67-.02-.67-.65-.03-6.87-.06-13.73-.08-20.6,0-.73.1-1.42.57-2.02C2.75.37,3.41,0,4.24,0c4.64,0,9.29-.01,13.93,0,1.52,0,2.58,1.2,2.59,2.88,0,3.12,0,6.23,0,9.35,0,.32,0,.65,0,.97h0ZM11.26,3.53c-1.67,0-3.34,0-5.02,0-.73,0-1.04.3-1.05,1.03-.01,1.4-.02,2.79,0,4.19,0,.7.33,1.01,1.03,1.01,3.33,0,6.66,0,9.98,0,.69,0,1.02-.32,1.03-1.01.01-1.4.01-2.79,0-4.19,0-.73-.33-1.03-1.05-1.03-1.64,0-3.28,0-4.92,0ZM7.65,18c-.07-.15-.11-.2-.12-.26-.25-1.46.17-2.69,1.3-3.66.69-.6,1.54-.8,2.42-.9.49-.05.8-.42.78-.83-.03-.47-.36-.79-.88-.8-.32,0-.65.04-.96.1-2.8.49-4.79,3.28-4.35,6.09.05.34.11.68.17,1.05-.17-.01-.27-.02-.36-.02-.45.01-.79.31-.85.72-.06.4.15.78.57.9.81.24,1.62.46,2.45.64.45.1.81-.13.94-.57.24-.81.46-1.62.65-2.44.12-.51-.25-.92-.78-.95-.58-.03-.77.38-.97.92ZM16.39,15.18c.14,0,.21,0,.27,0,.53,0,.89-.25.96-.69.07-.45-.18-.82-.7-.96-.72-.2-1.44-.39-2.17-.57-.51-.13-.94.06-1.07.5-.24.81-.46,1.62-.66,2.44-.1.42.14.83.5.95.45.15.85-.02,1.07-.44.06-.12.11-.24.18-.38.06.07.09.09.1.12.57,2.02-1.03,4.35-3.14,4.55-.26.03-.56,0-.76.13-.25.16-.51.44-.56.71-.04.22.16.57.36.72.19.15.52.18.78.16,3.25-.24,5.51-3.11,5.01-6.33-.04-.28-.11-.57-.17-.91Z"/>
      <path class="cls-2" d="M11.21,29.46c-3.33,0-6.66,0-9.99,0-.94,0-1.22-.28-1.22-1.22,0-.21,0-.42,0-.63.06-.8.59-1.41,1.38-1.55.32-.06.64-.09.97-.09,5.91,0,11.82,0,17.73,0,1.82,0,2.56.86,2.33,2.68-.06.46-.37.77-.83.81-.18.02-.36,0-.54.01-3.28,0-6.56,0-9.84,0Z"/>
      <path class="cls-4" d="M22.41,21.57c0-.1,0-.19,0-.29,0-.57.03-.59.62-.6.97-.01,1.23-.28,1.23-1.26,0-4.66-.01-9.32,0-13.98,0-2.07,1.41-3.79,3.44-4.21.31-.06.65-.07.97-.06.44.02.73.31.78.73.05.41-.16.79-.54.94-.18.07-.38.09-.57.11-1.49.14-2.62,1.67-2.28,3.11.03.11.24.24.38.26.33.05.69,0,1.02.08,1.31.29,2.14,1.51,1.99,2.89-.13,1.23-1.26,2.23-2.54,2.25-.89.01-.87-.1-.87.88,0,2.42,0,4.84,0,7.26,0,1.38-.76,2.4-2.01,2.7-.4.1-.84.08-1.26.06-.12,0-.28-.19-.32-.32-.06-.16-.01-.35-.01-.53,0,0,0,0,0,0ZM26.66,8.11c-.14.01-.36-.03-.42.05-.11.16-.2.39-.19.59.01.33.02.72.2.97.15.21.94.02,1.16-.2.25-.25.33-.54.19-.88-.17-.43-.52-.54-.94-.52Z"/>
      <path class="cls-1" d="M11.25,5.17c-1.3,0-2.6,0-3.9,0-.38,0-.53.13-.52.51.02.65.01,1.3,0,1.95,0,.35.15.49.5.49,2.58,0,5.16,0,7.74,0,.38,0,.52-.16.52-.53-.01-.62,0-1.23,0-1.85,0-.54-.04-.57-.59-.57-1.25,0-2.5,0-3.75,0Z"/>
      <path class="cls-5" d="M11.25,5.17c1.25,0,2.5,0,3.75,0,.56,0,.59.03.59.57,0,.62,0,1.23,0,1.85,0,.37-.13.53-.52.53-2.58,0-5.16,0-7.74,0-.35,0-.5-.14-.5-.49,0-.65.01-1.3,0-1.95,0-.38.14-.52.52-.51,1.3.02,2.6,0,3.9,0Z"/>
    </g>
  </g>
</svg>