<?xml version="1.0" encoding="UTF-8"?>
<svg id="Camada_1" data-name="Camada 1" xmlns="http://www.w3.org/2000/svg" viewBox="0 0 60 60">
  <defs>
    <style>
      .cls-1 {
        fill: #fff;
        stroke-width: 0px;
      }
    </style>
  </defs>
  <path class="cls-1" d="M38.59,38.53c-6.15,0-12.3,0-18.45,0h0c0-1.87,0-3.74,0-5.61h0c1.16,0,2.31.02,3.47,0,.24,0,.51-.08.7-.22.49-.38.36-1.13-.22-1.35-.22-.08-.46-.11-.7-.11-.84-.01-1.68,0-2.52,0-.77,0-.74.04-.74-.71,0-1.46,0-2.91,0-4.37,0-.43,0-.43-.43-.53-.49-.11-.74-.45-.69-.92.05-.44.36-.7.86-.71.09,0,.19,0,.28.01h0c0,.29,0,.59,0,.9,0,.77-.05.73.71.73,5.68,0,11.36,0,17.04,0,.11,0,.22,0,.33,0,.29.02.39-.13.38-.4-.01-.41,0-.82,0-1.23h0c.14,0,.29-.01.43,0,.41.04.69.35.72.76.03.42-.2.74-.61.85-.06.02-.12.02-.19.03-.23.02-.34.14-.33.38,0,.13,0,.25,0,.38,0,1.43,0,2.85,0,4.28,0,.56,0,.56-.55.57-.89,0-1.77,0-2.66,0-.22,0-.45.02-.65.08-.38.11-.63.5-.6.86.04.37.36.69.75.75.09.01.19,0,.28,0,1.14,0,2.28,0,3.42,0h0c0,1.87,0,3.74,0,5.61h0ZM32.18,32.97c-.11-.39-.16-.82-.36-1.17-.55-1-1.14-1.97-1.75-2.93-.36-.57-1.06-.57-1.42-.01-.62.97-1.23,1.95-1.77,2.97-.53,1.01-.3,2.23.47,3.03.82.85,1.97,1.11,3.04.68,1.03-.42,1.73-1.46,1.78-2.58Z"/>
  <path class="cls-1" d="M20.15,24c0-.76-.01-1.52-.02-2.28q0-.48-.46-.58c-.43-.09-.68-.41-.67-.85.02-.43.3-.73.74-.78.14-.01.28,0,.43,0,6.13,0,12.26,0,18.38,0,.14,0,.29,0,.43,0,.44.04.73.34.75.77.02.44-.23.76-.67.85q-.46.1-.46.58c0,.76-.01,1.52-.02,2.28h0c-6.15,0-12.3,0-18.45,0h0Z"/>
  <path class="cls-1" d="M29.34,44.7c-3.02,0-6.05,0-9.07,0-.22,0-.45-.01-.66-.07-.38-.1-.61-.45-.58-.82.03-.4.27-.64.7-.71.41-.07.42-.07.42-.51,0-.63,0-1.27,0-1.9,0-.41.03-.43.43-.44.08,0,.16,0,.24,0,5.7,0,11.4,0,17.1,0q.67,0,.67.68c0,.57,0,1.14,0,1.71,0,.27.05.44.38.46.49.04.75.33.74.76,0,.41-.28.74-.72.81-.19.03-.38.03-.57.03-3.02,0-6.05,0-9.07,0Z"/>
  <path class="cls-1" d="M36.09,17.78h-4.43c0-.42-.04-.81.01-1.19.04-.34.35-.57.72-.57.97-.02,1.93-.02,2.9,0,.41,0,.74.3.79.69.04.34,0,.69,0,1.08Z"/>
  <path class="cls-1" d="M20.15,32.92c-.16,0-.32,0-.47-.02-.4-.08-.69-.46-.67-.86.02-.38.29-.68.67-.75.33-.06.44.02.45.36.01.43,0,.85.01,1.28h0Z"/>
  <path class="cls-1" d="M38.59,32.93c0-.43,0-.85.01-1.28.01-.34.12-.42.45-.36.38.07.65.37.67.75.02.4-.27.78-.67.86-.15.03-.31.02-.47.02h0Z"/>
  <path class="cls-1" d="M20.14,38.53c0,.33,0,.66-.02.99-.01.23-.07.45-.1.67-.6,0-.95-.26-1-.7-.05-.45.26-.83.75-.92.12-.02.25-.02.38-.03h0Z"/>
  <path class="cls-1" d="M38.59,38.54c.13,0,.25,0,.38.03.5.09.81.47.75.92-.05.45-.4.71-.97.7-.25-.53-.09-1.1-.15-1.66h0Z"/>
  <path class="cls-1" d="M29.44,31.06c.3.52.63,1.02.89,1.55.2.41.04.93-.3,1.2-.41.32-.9.33-1.31.01-.35-.26-.53-.78-.33-1.19.27-.55.6-1.06.91-1.59.05,0,.09,0,.14.01Z"/>
</svg>