<?xml version="1.0" encoding="UTF-8"?>
<svg id="Camada_10" data-name="Camada 10" xmlns="http://www.w3.org/2000/svg" viewBox="0 0 300 150">
  <defs>
    <style>
      .cls-1 {
        fill: #fff;
        stroke-width: 0px;
      }
    </style>
  </defs>
  <path class="cls-1" d="M67.67,110.18c1.61,1.15,3.23,1.12,4.84,0,.04-6.03.09-12.06.13-18.09,1.72-2.42,4.31-3.54,7.05-3.95,2.58-.39,2.27-2.06,1.89-3.49-.39-1.48-1.85-1.99-3.31-1.37-1.46.63-2.84,1.47-4.22,2.28-.7.41-1.45,1.19-1.61-.33-.31-2.85-2.31-2.25-4.12-2.1-.26.57-.75,1.13-.75,1.7,0,8.45.05,16.9.1,25.35ZM26.92,110.77c.23-.58.65-1.17.66-1.75.02-5.86-.04-11.73-.07-17.6,0-3.53-1.14-6.53-4.71-7.71-5.05-1.67-10.13-.98-15.1.66-1.75.58-.8,1.85-.63,2.9.21,1.33.96,1.12,2.03.94,2.85-.48,5.75-1.03,8.62-.96,3.15.07,4.35,1.51,4.46,4.65.12,3.35.21,6.74-.09,10.07-.41,4.52-5.89,7.12-9.84,4.89-2.15-1.22-2.96-4.28-1.29-6.33,1.03-1.27,2.68-2.11,4.18-2.91.89-.47,2.16-.28,3-.8.57-.36.83-1.42.92-2.2.03-.24-1.04-.93-1.47-.84-3.04.7-6.22,1.17-9.01,2.45-3.37,1.55-4.77,5.62-3.88,9.22.89,3.6,3.63,5.89,7.51,6.17,2.96.21,5.82-.06,8.32-1.94.47-.35,1.18-.38,1.78-.56.76,2.68,2.88,1.61,4.6,1.65ZM278.07,78.96c-.41-.93-.67-1.58-.97-2.2-5.73-12.18-11.47-24.37-17.21-36.55-.2-.42-.39-.84-.62-1.25-.6-1.07-1.28-1.34-2.02-.13-.3.49-.54,1.03-.79,1.55-7.6,16.18-15.2,32.36-22.8,48.54-.25.53-.58,1.04-.68,1.59-.04.2.57.75.76.7.54-.15,1.03-.52,1.53-.82,9.86-5.93,20.48-9.49,32.02-10.25,3.03-.2,6.06-.36,9.08-.59.56-.04,1.09-.37,1.7-.59ZM228.35,92.07c-.42-1.04-.62-1.58-.86-2.11-3.81-8.09-7.61-16.19-11.47-24.26-.36-.76-1.11-1.34-1.67-2-.53.72-1.19,1.37-1.57,2.16-2.42,5.02-4.78,10.07-7.16,15.12-3.77,7.98-7.54,15.96-11.3,23.95-.22.48-.35,1-.52,1.5.6-.2,1.21-.37,1.79-.6.2-.08.32-.34.51-.47,4.06-2.68,7.85-6.03,12.28-7.86,5.43-2.24,11.39-3.21,17.12-4.73.9-.24,1.81-.44,2.85-.7ZM109.01,100.09s-.01,0-.02,0c0-2.9.12-5.8-.03-8.7-.23-4.74-2.38-7.55-6.55-8.23-4.31-.7-8.59-.35-12.81.97-1.77.55-1.66,1.51-1.32,2.91.41,1.7,1.31,1.32,2.59,1.06,2.5-.5,5.07-.96,7.6-.93,3.72.05,4.98,1.49,5.08,5.17.08,2.78.09,5.57,0,8.35-.13,4.84-3.21,7.36-8.08,6.71-3.41-.46-5.18-3.85-3.26-6.7.85-1.25,2.37-2.15,3.75-2.92.98-.54,2.34-.4,3.34-.92.61-.32,1.02-1.28,1.19-2.02.06-.27-.85-1.12-1.27-1.09-3.5.28-7.01.66-9.95,2.84-2.92,2.17-4.09,5.79-3.08,9.31.98,3.41,3.65,5.47,7.5,5.72,2.85.19,5.63-.03,8-1.85,1.05-.81,1.65-1.28,2.62.36.42.7,2.49.64,3.77.53.37-.03.85-1.44.88-2.23.11-2.78.04-5.57.04-8.35ZM172.2,100.21c.07,0,.15,0,.22-.01-.23-3.69-.33-7.4-.74-11.07-.38-3.45-2.78-5.37-6.01-5.93-4.3-.74-8.59-.39-12.8.91-1.67.52-1.82,1.4-1.47,2.87.39,1.61,1.19,1.42,2.55,1.16,2.72-.52,5.53-.96,8.29-.87,3.15.1,4.33,1.53,4.46,4.67.12,2.89.12,5.8.03,8.69-.14,4.88-3.14,7.39-8.01,6.8-3.59-.43-5.4-4.02-3.23-6.91.97-1.29,2.68-2.1,4.19-2.9.89-.47,2.12-.32,3.01-.79.52-.27.91-1.21.92-1.86,0-.41-.82-1.22-1.22-1.19-3.85.32-7.73.69-10.74,3.5-2.66,2.48-3.2,5.56-2.2,8.92,1.02,3.42,3.63,5.02,7.01,5.38,2.94.32,5.86.11,8.34-1.8,1.01-.77,1.64-1.38,2.65.31.43.72,2.48.75,3.73.59.44-.06.93-1.6.98-2.48.13-2.66.05-5.33.05-8ZM223.66,99.03c-.64-.21-1.07-.52-1.45-.46-14.51,2.29-26.37,8.86-34.66,21.18-.34.5-.37,1.2-.54,1.81.66-.15,1.36-.2,1.97-.47,6.23-2.75,12.78-4.29,19.48-5.4,1.29-.21,2.66-1.29,3.54-2.34,3.5-4.17,6.81-8.5,10.21-12.76.36-.45.78-.85,1.45-1.56ZM116.89,96.71c0,3.94.09,7.89-.03,11.83-.07,2.2,1.13,2.34,2.85,2.39,1.87.05,2.75-.4,2.7-2.49-.12-4.75.07-9.52-.08-14.27-.07-2.32.84-3.8,2.88-4.63,1.5-.62,3.05-1.18,4.63-1.54,2.39-.54,1.4-2.35,1.43-3.65.06-1.89-1.54-1.58-2.54-1.25-1.74.58-3.43,1.4-5.01,2.33-1.06.62-1.89,1.36-1.97-.58-.1-2.52-1.95-1.78-3.32-1.8-1.84-.03-1.52,1.42-1.53,2.51-.04,3.71-.01,7.43-.01,11.14ZM137.2,96.98c0,3.82.09,7.64-.04,11.45-.07,2.06.82,2.55,2.7,2.51,1.72-.04,2.86-.2,2.83-2.39-.09-7.75-.1-15.5,0-23.25.03-2.25-1.21-2.26-2.88-2.33-1.94-.08-2.71.56-2.65,2.55.11,3.81.03,7.63.03,11.45ZM142.8,77.25c0-2.83-.17-2.95-2.78-3.04-1.87-.07-3.13.19-2.99,2.58.16,2.73.16,2.79,2.98,2.89,2.05.08,3.19-.46,2.78-2.44Z"/>
  <path class="cls-1" d="M263.46,122.74c-2.34-.56-4.67-1.18-7.02-1.67-7.87-1.65-15.73-3.42-23.65-4.8-4.23-.74-8.59-.76-12.88-1.16-1.2-.11-2.38-.4-3.57-.6.71-1.03,1.3-2.17,2.15-3.07,5.45-5.84,11.86-10.45,18.96-14.11,10.62-5.47,22.04-8.16,33.87-9.28,2.85-.27,5.74-.32,8.6-.22,1,.04,2.54.6,2.88,1.35,2.63,5.79,5.57,11.53,7.37,17.59,2.2,7.43-1.18,12.48-8.73,14.82-1.09.34-2.15.77-3.22,1.16h-14.74Z"/>
  <path class="cls-1" d="M40.95,122.74c-1.03-.49-2.08-.95-3.08-1.49-2.4-1.29-3.62-3.67-3.15-6.06.27-1.37.85-2.27,2.51-2.33,1.67-.07,1.67.81,1.96,2.06.72,3.19,3.52,3.4,6.1,3.53,2.91.16,6.01.39,7.83-2.59.93-1.52.37-3.06-1.15-3.87-1.2-.63-2.62-1-3.98-1.13-3.37-.31-6.76-.41-10.14-.62-2.9-.18-3.92-1.53-2.82-4.04.83-1.9,2.81-3.63,2.83-5.45.01-1.57-2.32-3.03-3.08-4.77-2.29-5.25.4-10.92,5.95-12.45,4.25-1.17,8.59-1.26,12.56,1.06,1.31.77,2.24,1.04,3.35-.11.31-.32.77-.6,1.2-.69,1.08-.23,2.54-1.81,3.15.14.4,1.28,1.07,3.42-1.49,3.86-1.83.32-2.39,1.09-2.14,3.09.77,5.97-2.26,9.81-8.27,10.76-1.71.27-3.5.07-5.24.21-.73.06-1.72.22-2.1.71-.6.79-.8,1.88-1.16,2.85.94.22,1.87.55,2.82.66,3.13.35,6.29.48,9.39.95,2.9.44,4.93,2.17,5.51,5.11.61,3.08-.2,5.86-2.81,7.73-1.64,1.18-3.6,1.93-5.42,2.87h-9.12ZM45.93,87.07c-4.07-.06-6.28,1.82-6.28,5.3,0,3.38,2.12,5.27,5.93,5.32,4.02.05,6.31-1.89,6.29-5.34-.02-3.44-2.03-5.23-5.95-5.28Z"/>
  <path class="cls-1" d="M278.07,78.96c-.6.22-1.14.55-1.7.59-3.03.24-6.06.4-9.08.59-11.54.75-22.16,4.32-32.02,10.25-.5.3-.99.66-1.53.82-.19.05-.79-.5-.76-.7.1-.55.43-1.07.68-1.59,7.6-16.18,15.2-32.36,22.8-48.54.25-.52.49-1.06.79-1.55.74-1.21,1.42-.94,2.02.13.23.41.42.83.62,1.25,5.74,12.18,11.48,24.36,17.21,36.55.3.63.56,1.27.97,2.2Z"/>
  <path class="cls-1" d="M228.35,92.07c-1.04.25-1.95.46-2.85.7-5.73,1.51-11.7,2.49-17.12,4.73-4.42,1.83-8.21,5.18-12.28,7.86-.19.13-.31.39-.51.47-.58.23-1.19.41-1.79.6.17-.5.3-1.02.52-1.5,3.76-7.99,7.53-15.97,11.3-23.95,2.38-5.04,4.74-10.09,7.16-15.12.38-.79,1.04-1.44,1.57-2.16.57.66,1.31,1.24,1.67,2,3.86,8.07,7.66,16.16,11.47,24.26.25.52.44,1.07.86,2.11Z"/>
  <path class="cls-1" d="M109.01,100.09c0,2.78.07,5.57-.04,8.35-.03.79-.51,2.2-.88,2.23-1.28.11-3.35.18-3.77-.53-.97-1.65-1.57-1.17-2.62-.36-2.37,1.82-5.15,2.04-8,1.85-3.86-.25-6.52-2.31-7.5-5.72-1.01-3.52.16-7.14,3.08-9.31,2.94-2.18,6.46-2.55,9.95-2.84.42-.03,1.33.82,1.27,1.09-.17.75-.58,1.71-1.19,2.02-1,.52-2.36.38-3.34.92-1.38.76-2.91,1.66-3.75,2.92-1.93,2.85-.15,6.25,3.26,6.7,4.86.65,7.94-1.87,8.08-6.71.08-2.78.07-5.57,0-8.35-.1-3.68-1.36-5.12-5.08-5.17-2.53-.03-5.1.42-7.6.93-1.28.26-2.18.64-2.59-1.06-.34-1.4-.44-2.36,1.32-2.91,4.21-1.32,8.5-1.67,12.81-.97,4.17.68,6.32,3.48,6.55,8.23.14,2.89.03,5.8.03,8.7,0,0,.01,0,.02,0Z"/>
  <path class="cls-1" d="M172.2,100.21c0,2.67.08,5.34-.05,8-.04.88-.54,2.43-.98,2.48-1.25.16-3.3.13-3.73-.59-1-1.68-1.64-1.08-2.65-.31-2.49,1.9-5.4,2.12-8.34,1.8-3.38-.37-5.99-1.97-7.01-5.38-1.01-3.36-.46-6.44,2.2-8.92,3.01-2.81,6.9-3.18,10.74-3.5.4-.03,1.23.78,1.22,1.19-.01.65-.4,1.59-.92,1.86-.89.47-2.12.31-3.01.79-1.5.8-3.22,1.61-4.19,2.9-2.17,2.89-.36,6.48,3.23,6.91,4.87.58,7.87-1.92,8.01-6.8.08-2.89.09-5.8-.03-8.69-.13-3.14-1.31-4.57-4.46-4.67-2.76-.09-5.56.35-8.29.87-1.36.26-2.16.46-2.55-1.16-.35-1.46-.2-2.35,1.47-2.87,4.21-1.31,8.51-1.65,12.8-.91,3.22.56,5.62,2.47,6.01,5.93.41,3.67.51,7.38.74,11.07-.07,0-.15,0-.22.01Z"/>
  <path class="cls-1" d="M26.92,110.77c-1.72-.04-3.84,1.02-4.6-1.65-.6.18-1.31.21-1.78.56-2.5,1.89-5.36,2.15-8.32,1.94-3.88-.28-6.63-2.56-7.51-6.17-.89-3.61.51-7.68,3.88-9.22,2.79-1.28,5.97-1.75,9.01-2.45.43-.1,1.5.6,1.47.84-.09.78-.35,1.84-.92,2.2-.83.52-2.11.33-3,.8-1.5.8-3.15,1.64-4.18,2.91-1.67,2.06-.86,5.12,1.29,6.33,3.95,2.24,9.43-.37,9.84-4.89.3-3.33.21-6.72.09-10.07-.11-3.14-1.32-4.58-4.46-4.65-2.87-.07-5.77.49-8.62.96-1.07.18-1.82.39-2.03-.94-.17-1.05-1.12-2.33.63-2.9,4.96-1.64,10.04-2.33,15.1-.66,3.58,1.18,4.72,4.19,4.71,7.71-.2,1.24-.55,2.48-.57,3.72-.06,5.21-.02,10.42-.02,15.63Z"/>
  <path class="cls-1" d="M223.66,99.03c-.67.72-1.09,1.12-1.45,1.56-3.39,4.26-6.71,8.59-10.21,12.76-.88,1.05-2.25,2.13-3.54,2.34-6.7,1.11-13.25,2.65-19.48,5.4-.61.27-1.31.32-1.97.47.17-.61.21-1.31.54-1.81,8.28-12.32,20.15-18.89,34.66-21.18.38-.06.81.25,1.45.46Z"/>
  <path class="cls-1" d="M116.89,96.71c0-3.71-.02-7.43.01-11.14.01-1.09-.31-2.55,1.53-2.51,1.37.03,3.22-.72,3.32,1.8.08,1.94.91,1.2,1.97.58,1.58-.93,3.27-1.75,5.01-2.33.99-.33,2.59-.64,2.54,1.25-.04,1.3.96,3.11-1.43,3.65-1.58.36-3.13.92-4.63,1.54-2.03.84-2.95,2.31-2.88,4.63.15,4.75-.04,9.51.08,14.27.05,2.08-.83,2.54-2.7,2.49-1.72-.05-2.92-.2-2.85-2.39.12-3.94.03-7.89.03-11.83Z"/>
  <path class="cls-1" d="M137.2,96.98c0-3.82.08-7.64-.03-11.45-.06-1.99.72-2.63,2.65-2.55,1.66.07,2.9.07,2.88,2.33-.1,7.75-.09,15.5,0,23.25.03,2.19-1.11,2.35-2.83,2.39-1.88.04-2.77-.45-2.7-2.51.12-3.81.04-7.63.03-11.45Z"/>
  <path class="cls-1" d="M68.32,83.14c1.81-.15,3.82-.75,4.12,2.1.16,1.52.91.74,1.61.33,1.38-.81,2.75-1.66,4.22-2.28,1.46-.63,2.91-.11,3.31,1.37.38,1.43.69,3.11-1.89,3.49-2.74.41-5.33,1.53-7.05,3.95-.27,2.37-.77,4.74-.75,7.11.02,3.66.4,7.32.62,10.98-1.62,1.11-3.23,1.14-4.84,0,.22-1.35.62-2.7.63-4.06.06-7.66.02-15.33.02-22.99Z"/>
  <path class="cls-1" d="M142.8,77.25c.41,1.98-.73,2.51-2.78,2.44-2.83-.11-2.82-.17-2.98-2.89-.14-2.39,1.11-2.65,2.99-2.58,2.61.09,2.78.21,2.78,3.04Z"/>
  <path class="cls-1" d="M68.32,83.14c0,7.66.04,15.33-.02,22.99-.01,1.35-.41,2.7-.63,4.06-.04-8.45-.1-16.9-.1-25.35,0-.57.49-1.13.75-1.7Z"/>
  <path class="cls-1" d="M26.92,110.77c0-5.21-.05-10.42.02-15.63.01-1.24.37-2.48.57-3.72.03,5.87.09,11.73.07,17.6,0,.58-.43,1.17-.66,1.75Z"/>
  <path class="cls-1" d="M72.51,110.19c-.22-3.66-.6-7.32-.62-10.98-.01-2.37.48-4.74.75-7.11-.04,6.03-.09,12.06-.13,18.09Z"/>
</svg>