<?xml version="1.0" encoding="UTF-8"?>
<svg id="Camada_9" data-name="Camada 9" xmlns="http://www.w3.org/2000/svg" viewBox="0 0 300 150">
  <defs>
    <style>
      .cls-1 {
        fill: #fff;
        stroke-width: 0px;
      }
    </style>
  </defs>
  <path class="cls-1" d="M40.5,68.41c.2-1.47.41-2.94.59-4.41.89-7.25,3.23-14,7.05-20.22,7.39-12.02,17.95-19.84,31.57-23.53,5.62-1.52,11.38-2.19,17.15-1.54,20.75,2.33,35.57,12.97,44,32.15,2.96,6.74,4.2,13.91,3.92,21.27-.5,13.28-5.29,24.8-14.49,34.44-7,7.33-15.47,12.16-25.27,14.6-8.13,2.02-16.33,2.16-24.43,0-20.87-5.58-33.76-19.02-38.79-39.98-.59-2.44-.7-5-1.05-7.5-.05-.34-.16-.67-.24-1,0-1.43,0-2.85,0-4.28ZM137.2,88.28c-.71-.52-1.15-.8-1.55-1.14-1.8-1.55-3.69-3.03-5.36-4.71-3.06-3.07-5.46-6.65-7.58-10.42-.38-.67-.71-.89-1.5-.61-6.99,2.51-14.21,3.81-21.62,4.2-.69.04-1.06.25-1.32.94-1.31,3.5-2.67,6.98-4.05,10.45-.65,1.64-1.38,3.24-2.17,5.07,15.38,2.59,30.35,2.65,45.15-3.79ZM90.42,44.67c-8.07-3.34-15.49-7.69-22.24-13.23,1.03,12.28,3.8,24.04,8.36,35.48,3.13-2.91,12.2-17.46,13.88-22.25ZM133.82,95.03c-.08-.12-.17-.23-.25-.35-12.79,4.12-25.85,4.27-39.12,2.46.13.3.14.38.18.43,5.02,5.96,10.6,11.34,16.69,16.2.58.46,1.02.28,1.55.02,6.23-3.03,11.7-7.06,16.14-12.4,1.7-2.04,3.21-4.24,4.81-6.37ZM69.98,28.78c.43.4.67.65.94.87,5.99,4.97,12.64,8.85,19.77,11.93.85.36,1.22.16,1.48-.66,1.34-4.16,2.76-8.3,4.01-12.49.49-1.65.63-3.4.96-5.26-9.7-.83-18.58,1.06-27.17,5.61ZM78.72,69.25c.25.13.34.19.43.21,5.07,1.03,10.19,1.56,15.37,1.63.62,0,.91-.24,1.07-.79,2.14-6.94,4-13.96,5.34-21.1.15-.79-.2-1.01-.8-1.19-1.83-.57-3.69-1.08-5.48-1.78-1.08-.42-1.52-.2-2.01.83-3.27,6.78-7.12,13.22-11.67,19.22-.73.96-1.46,1.92-2.25,2.97ZM89.24,98.27c-3.67,6.02-7.23,11.86-10.83,17.79,9.36,2.9,18.74,2.99,28.43.04-6.62-5.45-12.4-11.36-17.59-17.83ZM100.32,70.86c.44,0,.82.04,1.2,0,2.02-.24,4.06-.35,6.03-.77,3.86-.83,7.67-1.85,11.51-2.78.76-.18.91-.49.61-1.29-1.72-4.64-3.37-9.29-5.01-13.96-.2-.57-.42-.89-1.05-1-2.42-.44-4.83-.92-7.23-1.42-.66-.14-.85.1-.98.72-.55,2.69-1.1,5.38-1.77,8.03-1.03,4.1-2.17,8.18-3.31,12.47ZM135.42,49.49c-4.87-9.54-11.95-16.66-21.52-21.56-.04.46-.1.7-.08.93.37,6.31,1.36,12.52,2.77,18.67.18.81.58,1.1,1.35,1.17,2.84.24,5.66.62,8.5.75,2.91.13,5.82.03,8.97.03ZM65.05,87.39c.04.43.03.68.08.91,2.05,8.41,4.57,16.68,7.51,24.82.13.37.46.67.69,1.01.34-.27.78-.46,1-.81,2.67-4.12,5.33-8.25,7.92-12.42,1.1-1.77,2.01-3.66,3.11-5.68-7.13-1.85-13.82-4.39-20.31-7.84ZM63.54,32.95c-1.1.93-1.91,1.72-2.82,2.38-.99.71-1.25,1.62-1.22,2.77.09,3.63.05,7.26.23,10.89.22,4.44.62,8.87.91,13.31.04.64.29,1.03.9,1.29,1.61.68,3.17,1.45,4.79,2.09,1.7.68,3.44,1.24,5.16,1.86.07-.07.14-.14.22-.21-4.2-10.99-6.86-22.35-8.17-34.37ZM68.72,111.73c-2.51-8.7-5-17.36-7.44-25.81-3.83,1.69-7.67,3.39-11.54,5.1,1.44,5.68,11.61,16.87,18.99,20.72ZM139.45,61.25c-4.54,3.65-9.28,6.41-14.43,8.7,3.35,5.95,7.26,11.28,13.07,15.26,2.48-7.9,2.96-15.72,1.36-23.96ZM117.93,51.8c0,.28-.06.51,0,.69,1.52,4.17,3.05,8.34,4.58,12.51.26.71.7.74,1.34.45,4.38-2.02,8.53-4.41,12.25-7.49,2.57-2.12,2.16-1.05,1.18-4.22-.28-.92-.77-1.14-1.69-1.18-5.54-.21-11.08-.5-16.61-.76-.34-.02-.69,0-1.06,0ZM56.38,39.94c-.23.21-.37.32-.48.45-3.28,4.04-5.84,8.49-7.78,13.31-.25.63-.05,1.01.43,1.37,2.31,1.72,4.61,3.45,6.94,5.14.58.42,1.24.72,1.9,1.1-.34-7.18-.67-14.19-1.01-21.37ZM74.45,74.36c-2.82,2.65-5.68,5.34-8.65,8.13,5.43,3.06,11.07,5.48,17.1,7.23-2.88-5.24-5.67-10.3-8.45-15.36ZM101.5,45.39c.12-.48.25-.81.28-1.15.52-5.92,1.08-11.84,1.5-17.77.17-2.37.02-2.34-2.37-2.79-.76-.14-.89.13-1.01.78-.35,2.07-.6,4.18-1.2,6.18-1.16,3.88-2.55,7.7-3.8,11.56-.1.3,0,.96.15,1.02,2.1.76,4.22,1.43,6.45,2.17ZM45.16,70.32c-.1.35-.14.41-.14.48.09,5.57,1.11,10.96,2.93,16.22.28.8.76.87,1.4.63,2.43-.91,4.86-1.82,7.26-2.79.73-.29,1.38-.79,2.23-1.28-5.31-3.75-9.84-8.02-13.67-13.26ZM59.65,78.47c.09-.05.18-.1.27-.15-.56-3.62-1.09-7.23-1.69-10.84-.05-.3-.46-.59-.77-.78-2.7-1.72-5.43-3.39-8.12-5.13-.97-.63-1.86-1.38-2.86-2.14-.52,1.55-.83,2.85.05,4.36,2.6,4.48,5.82,8.42,9.7,11.84,1.11.98,2.28,1.9,3.43,2.84ZM79.89,74.49c2.42,5.05,5.15,9.83,8.47,14.66,1.87-4.61,3.63-8.94,5.38-13.27-4.68-.47-9.19-.93-13.85-1.4ZM113.54,48.11c-.45-2.33-.94-4.34-1.2-6.38-.6-4.83-1.08-9.67-1.64-14.51-.03-.3-.2-.73-.43-.85-.67-.34-1.41-.56-2.5-.96,0,1.88.12,3.47-.02,5.04-.47,5.1-1.05,10.18-1.55,15.27-.03.28.13.82.29.85,2.27.53,4.56,1,7.06,1.52ZM72.01,72.64c-3.66-1.33-7.03-2.57-10.63-3.88.67,3.96,1.3,7.7,1.94,11.44.14.04.27.08.41.12,2.72-2.52,5.44-5.04,8.28-7.68Z"/>
  <path class="cls-1" d="M259.5,43.39c-.14.9-.29,1.8-.43,2.7-.85,5.26-3.45,7.55-8.75,7.55-1.88,0-3.77-.19-5.65-.36-1.37-.12-1.54-.09-1.8,1.27-.21,1.12-.33,2.25-.39,3.39-.07,1.24.03,2.5-.03,3.74-.04.87.3,1.09,1.12,1.08,3.56-.04,7.13.03,10.69-.04,1.1-.02,1.5.31,1.35,1.39-.16,1.13-.18,2.28-.41,3.39-.57,2.77-2.29,4.04-5.53,4.1-1.92.04-3.85,0-5.77,0-1.42,0-1.43,0-1.43,1.39,0,8.31,0,16.61,0,24.92q0,1.56-1.56,1.56c-2.78,0-5.56-.03-8.34.02-.85.01-1.08-.26-1.08-1.1.02-12.01-.03-24.02.04-36.04.03-4.85,1.31-9.36,4.45-13.21,3.07-3.76,7.09-6,11.81-6.71,3.47-.52,7.02-.5,10.53-.68.39-.02.79.23,1.19.36v1.28Z"/>
  <path class="cls-1" d="M170.64,63.22c1.92-.71,3.65-1.51,5.45-1.99,10.44-2.81,20.68,4.03,22.07,14.76,1.05,8.08-1.44,14.85-7.98,19.89-7.68,5.92-19.77,4.65-26.05-2.73-3.1-3.64-4.44-8.06-4.48-12.76-.11-11.29-.03-22.59-.05-33.89,0-.7.23-1.12.8-1.48,2.85-1.83,5.95-2.85,9.32-3.11.81-.06.85.41.85,1,0,2.99,0,5.99,0,8.98,0,3.39,0,6.77,0,10.16,0,.38.04.76.06,1.17ZM170.58,76.2c0,1.17-.03,2.35,0,3.52.1,2.85.83,5.51,2.84,7.63,3.25,3.42,7.29,3.62,11.56,2.68.28-.06.59-.4.71-.69,1.5-3.53,2.31-7.17,1.69-11.02-.41-2.53-1.42-4.75-3.42-6.45-3.4-2.89-9.34-2.67-12.89-.57-.28.16-.45.69-.47,1.06-.06,1.28-.02,2.56-.02,3.84Z"/>
  <path class="cls-1" d="M213.67,87.08c0,3.74-.03,7.48.02,11.22.01.96-.3,1.21-1.22,1.19-2.88-.05-5.77-.04-8.66,0-.78,0-1.05-.22-1.05-1.03.03-5.98-.14-11.98.06-17.95.21-6.27,2.26-11.8,7.58-15.66,3.1-2.24,6.67-3.16,10.41-3.44,1.95-.15,3.91-.1,5.87-.16.6-.02.99.14.91.83-.25,1.97-.27,4-.81,5.89-.84,2.92-3,4.54-6.05,4.74-1.77.12-3.56.03-5.33-.05-.81-.04-1.21.18-1.28,1-.14,1.74-.38,3.47-.43,5.21-.07,2.74-.02,5.49-.02,8.23Z"/>
</svg>