<?xml version="1.0" encoding="UTF-8"?>
<svg id="Camada_5" data-name="Camada 5" xmlns="http://www.w3.org/2000/svg" viewBox="0 0 300 150">
  <defs>
    <style>
      .cls-1 {
        fill: #fff;
        stroke-width: 0px;
      }
    </style>
  </defs>
  <path class="cls-1" d="M54.88,40.48c.36,2.93.72,5.85,1.12,9.1-19.59,3.8-31.22,14.49-30.41,34.6.57,13.96,10.73,25.1,23.95,27.83,0-6.56.1-12.98-.14-19.39-.03-.74-1.9-1.91-2.99-2.02-2.99-.28-6.03-.1-10.45-.1,6.63-9.56,12.58-18.15,18.53-26.74.29.13.59.25.88.38v58.6c-3.38-.58-6.51-.84-9.49-1.67-17.62-4.89-29.61-20.58-29.86-38.84-.24-18.15,11.49-34.15,28.94-39.58,1.75-.55,3.4-1.44,5.09-2.18,1.6,0,3.21,0,4.81,0Z"/>
  <path class="cls-1" d="M63.54,40.48c1.75.63,3.47,1.37,5.25,1.86,18.69,5.1,31.44,22.83,30.19,42.02-1.27,19.43-16.47,35.6-35.74,38-.94.12-1.9.01-3.32.01v-59.31c6.52,9.38,12.41,17.85,18.98,27.3h-13.11v21.91c2.18-.77,4.16-1.27,5.97-2.14,11.98-5.71,18.95-18.08,17.69-31.21-1.24-12.85-10.79-24.24-23.19-27.64q-7.09-1.94-6.74-9.38c.02-.47.11-.95.17-1.42,1.28,0,2.57,0,3.85,0Z"/>
  <path class="cls-1" d="M154.51,82.46c-2.87,12.05-14.06,19.46-26.04,17.95-12.28-1.55-21.4-11.63-21.47-23.72-.07-12.14,9.21-22.48,21.31-23.75,12.72-1.34,23.45,5.79,26.27,17.99-5.5-.23-11.05,2.31-15.24-4.08-1.34-2.04-5.14-3.18-7.94-3.46-5.77-.57-10.75,3.77-12.03,9.55-1.48,6.67,1.28,13.27,6.68,16,5.23,2.64,10.69,1.1,14.97-3.78,1.17-1.33,3.23-2.29,5.01-2.58,2.63-.43,5.39-.11,8.47-.11Z"/>
  <path class="cls-1" d="M204.65,71.12c-3.21,0-6.41.24-9.54-.12-1.29-.15-2.69-1.38-3.58-2.49-4.94-6.14-12.63-7.09-17.99-2.09-5.63,5.26-5.54,15.3.19,20.58,5.3,4.88,12.91,4.2,17.54-1.93,1.58-2.09,3.2-2.75,5.61-2.63,2.54.13,5.09.03,7.66.03-.82,10.31-11.8,18.52-23.67,18.09-13.26-.49-23.35-11.03-23.25-24.29.09-12.82,10.05-22.97,22.99-23.44,12.34-.45,23.24,7.63,24.04,18.29Z"/>
  <path class="cls-1" d="M223.56,85.13v-8.85c3.17-1.63,6.15-2.87,8.73-4.67.75-.52.68-2.74.4-4.05-.75-3.54-4.43-4.64-12.14-3.57v36.22h-11.44v-46.83c7.8,0,15.65-.68,23.32.19,8.06.91,12.36,7.27,12.21,15.71-.15,8.34-4.83,14.43-12.52,15.78-2.61.46-5.36.07-8.57.07Z"/>
  <path class="cls-1" d="M252.92,76.71c4.62,0,7.97.14,11.29-.03,4.64-.24,7.15-2.74,7.09-6.69-.06-3.7-2.43-6.13-6.95-6.34-5.41-.26-10.85-.06-16.71-.06v-10.12c7.71,0,15.38-.6,22.91.17,7.15.73,11.58,6.23,12.39,13.21.91,7.85-2.09,13.44-8.96,16.72-.57.27-1.13.57-2.25,1.14,3.92,5.06,7.73,9.98,12.24,15.79-4.84,0-8.73.08-12.61-.07-.79-.03-1.77-.77-2.28-1.46-5.17-7.02-10.25-14.1-16.15-22.25Z"/>
</svg>