<?xml version="1.0" encoding="UTF-8"?>
<svg id="Camada_7" data-name="Camada 7" xmlns="http://www.w3.org/2000/svg" viewBox="0 0 300 150">
  <defs>
    <style>
      .cls-1 {
        fill: #fff;
        stroke-width: 0px;
      }
    </style>
  </defs>
  <path class="cls-1" d="M45.97,57.41c-1.42,8.16.22,13.87,8,15.86-1.97,9.63-3.87,19.01-5.83,28.38-.26,1.26-.8,2.46-1.19,3.69-1.28,4.06-4.08,6.22-8.3,6.28-7.05.11-14.1.21-21.15.02-4.7-.13-7.9-3.41-7.62-8.09.33-5.42,1.2-10.82,2.03-16.21.94-6.1,2.14-12.16,3.15-18.25,1.27-7.68,5.67-11.56,13.56-11.68,5.57-.08,11.14-.02,17.35-.02Z"/>
  <path class="cls-1" d="M130.73,122.74c-5.34-15.05-12.3-28.93-21.32-43.02-1.99,11.11-3.78,21.12-5.63,31.49h-8.31c3.06-17.57,6.09-34.98,9.31-53.52,5.44,5.81,9.37,11.38,12.9,17.22,3.48,5.77,6.64,11.73,10.39,18.41,1.81-9.62,3.5-18.63,5.24-27.91h7.78c-3.49,19.29-6.93,38.31-10.37,57.33Z"/>
  <path class="cls-1" d="M149.38,111.38h-8.06c0-1.44-.18-2.69.03-3.87,2.29-12.71,4.63-25.41,7-38.11.84-4.52.9-4.56,5.53-4.54,3.74.02,7.49-.03,11.2.31,9.27.85,14.1,6.82,13.24,16.09-1,10.88-9.14,18.64-20.25,19.25-2.13.12-4.26.02-6.61.02-.73,3.82-1.37,7.16-2.08,10.86ZM153.03,92.16c9.08,1.49,14.38-1.38,16.1-8.38.77-3.13.95-6.45-1.61-8.88-2.75-2.6-6.38-2.27-9.82-1.94-.61.06-1.51,1-1.63,1.66-1.08,5.75-2.02,11.53-3.03,17.54Z"/>
  <path class="cls-1" d="M172.28,110.6c9.38-15.6,18.88-31.14,28.35-46.69.5.12,1,.23,1.5.35,3.88,15.48,7.75,30.96,11.79,47.06-2.29.11-4.08.13-5.86.29-2.51.24-3.51-.93-4.02-3.33-1.53-7.16-3.28-14.27-4.98-21.39-.25-1.05-.67-2.06-1.28-3.92-3.62,6.05-6.83,11.39-10.47,17.47h12.3c.66,2.59,1.25,4.88,2.06,8.02-4.31,0-8.12-.09-11.92.03-3.29.11-6.59-.76-9.48,2.52-1.19,1.34-4.86.5-7.4.65-.19-.36-.38-.71-.57-1.07Z"/>
  <path class="cls-1" d="M263.47,100.45h12.21c.68,2.56,1.29,4.84,2.06,7.73-2.37.11-4.3.26-6.23.28-3.31.04-6.62-.02-9.92.04-.97.02-2.43,0-2.83.57-2.66,3.81-6.36,2.29-10.82,2.39,9.59-16.39,19.37-31.84,28.79-47.51.51.09,1.01.17,1.52.26,3.89,15.46,7.77,30.92,11.89,47.3-2.97,0-5.37.31-7.62-.15-.94-.19-1.96-1.89-2.26-3.08-1.8-7.09-3.4-14.24-5.09-21.36-.25-1.07-.67-2.09-1.28-3.95-3.61,6.07-6.81,11.43-10.4,17.47Z"/>
  <path class="cls-1" d="M215.91,111.61c.68-2.46,1.19-4.06,1.55-5.69.48-2.18,1.7-3.03,3.97-2.9,3.58.21,7.18.18,10.77.22,1.29.01,2.7.24,3.85-.19,1.51-.56,3.38-1.37,4.01-2.62.45-.9-.57-2.96-1.49-4.04-2.79-3.27-5.99-6.2-8.76-9.49-1.82-2.16-3.75-4.52-4.63-7.13-2.05-6.08,2.33-13.7,8.71-14.4,6.48-.72,13.09-.16,20.22-.16-.93,2.69-1.75,5.05-2.67,7.72-1.71,0-3.27-.01-4.83,0-2.73.03-5.49-.16-8.17.2-1.56.21-3.72.94-4.28,2.08-.53,1.09.27,3.35,1.22,4.51,2.71,3.33,5.94,6.23,8.68,9.54,1.89,2.28,3.96,4.75,4.8,7.48,1.88,6.09-1.75,12.56-8.06,14.08-7.99,1.92-16.15.44-24.88.78Z"/>
  <path class="cls-1" d="M69.72,67.06c-2.31,12.05-4.53,23.87-6.86,35.68-1.05,5.34-4.35,8.23-9.9,8.45-2.4.09-4.8.33-7.43.21,4.46-3.15,5.04-7.88,5.88-12.54,1.07-5.93,2.35-11.83,3.46-17.75.74-3.93,2.61-6.76,6.42-8.54,2.79-1.3,5.22-3.37,8.42-5.51Z"/>
  <path class="cls-1" d="M88.66,58.68c1.87,2.32,3.82,4.59,5.56,7,.52.72.75,1.91.6,2.8-2.27,13.71-4.62,27.42-6.97,41.12-.09.54-.4,1.04-.66,1.67h-8.7c3.09-17.76,6.1-35.07,9.1-52.38.35-.07.7-.14,1.05-.21Z"/>
  <path class="cls-1" d="M61.03,45.24c1.88,3.33,3.59,6.46,5.38,9.55,2.21,3.81,1.74,7.45-.8,10.84-2.6,3.46-6.21,5.17-10.52,4.56-6.07-.86-8.45-8.36-4.26-13.49,3.16-3.87,6.64-7.48,10.2-11.45Z"/>
</svg>