<?xml version="1.0" encoding="UTF-8"?>
<svg id="Camada_8" data-name="Camada 8" xmlns="http://www.w3.org/2000/svg" viewBox="0 0 300 150">
  <defs>
    <style>
      .cls-1 {
        fill: #fff;
        stroke-width: 0px;
      }
    </style>
  </defs>
  <path class="cls-1" d="M165.14,113.84c.8,3.95-1.62,7.49-5.69,8.2-1.24.22-2.57.28-3.81.1-2.67-.39-4.41-2.05-5.37-4.54-.09-.22-.15-.45-.23-.67,0-.02-.03-.03-.12-.11-.16.18-.32.36-.48.54-3.12,3.44-6.97,5.39-11.65,5.39-6.42-.01-10.96-3.03-13.57-8.9-1.54-3.45-2.12-7.11-2.31-10.85-.23-4.66.17-9.25,1.88-13.63,3.04-7.78,8.77-12.34,16.97-13.66,7.1-1.15,14.02-.09,20.81,2.13.52.17.65.45.65.98-.02,9.85-.02,19.69,0,29.54,0,.78.05,1.56.14,2.34.22,1.99.86,2.7,2.79,3.16ZM147.81,98.38c0-1,0-1.99,0-2.99,0-2.44,0-4.89-.01-7.33,0-.23-.17-.63-.31-.66-1.84-.29-3.68-.48-5.43.42-1.97,1.01-3.26,2.65-4.17,4.61-1.36,2.93-1.72,6.04-1.53,9.23.13,2.09.43,4.15,1.44,6.04,1.82,3.42,6.32,4.41,9.34,2.08.47-.36.69-.75.68-1.37-.03-3.34-.02-6.69-.02-10.03Z"/>
  <path class="cls-1" d="M139.34,36.01c1.41-1.47,2.7-2.99,4.17-4.32,3.3-2.97,7.12-5.01,11.58-5.46,5.52-.56,10.59.63,14.65,4.7,2.4,2.4,3.67,5.41,4.05,8.74.61,5.36-.04,10.56-2.49,15.43-2.48,4.93-6.5,8.26-11.4,10.61-4.67,2.24-9.64,3.39-14.73,4.13-4.91.71-9.78,1.59-14.35,3.66-5.14,2.33-9.13,5.89-11.74,10.93-.2.39-.31.98-1,.7-.58-.24-.8-.79-.55-1.48,1.6-4.33,4.11-8.05,7.54-11.14,5.1-4.6,11.17-7.28,17.78-8.79,3.64-.83,7.23-1.77,10.52-3.6,3.75-2.09,6.88-4.81,8.79-8.73,1.58-3.24,1.81-6.61.72-10.03-1.32-4.16-4.8-6.35-9.17-6.1-5.44.32-9.45,3.04-12.68,7.18-.51.65-.98,1.34-1.46,2.02-.54.75-1.05.71-1.46-.13-1.27-2.59-2.99-4.83-5.19-6.7-4.23-3.59-8.8-2.77-12.31.12-2.64,2.17-3.89,5.14-4.47,8.42-.91,5.21.04,10.05,2.99,14.45.63.94,1.47,1.73,2.18,2.62.19.24.45.7.35.85-.28.42-.71.21-1.06-.02-4.47-2.93-7.8-6.8-9.3-11.99-1.84-6.37-1.41-12.54,2.14-18.28,1.94-3.13,4.6-5.49,8.1-6.75,5.11-1.83,9.6-.65,13.51,3.01,1.83,1.71,3.2,3.74,4.28,5.94Z"/>
  <path class="cls-1" d="M88.22,121.82v-1.08c0-16.67,0-33.35-.01-50.02,0-2.22-.14-4.44-.22-6.79.99-.12,2.15-.31,3.32-.41,2.89-.25,5.77-.38,8.64.19,2.73.54,3.84,1.9,3.84,4.7,0,12.9,0,25.81,0,38.71v1.14h14.38c0,.99.03,1.91,0,2.82-.09,2.11-.28,4.21-1.04,6.21-1.09,2.87-3.22,4.31-6.22,4.49-1.25.08-2.51.03-3.77.03-5.98,0-11.95,0-17.93,0-.28,0-.57,0-.98,0Z"/>
  <path class="cls-1" d="M185.27,121.78h-14.78v-45.61c.29,0,.55,0,.8,0,3.06,0,6.12.03,9.18-.02.7-.01.94.23,1.07.87.26,1.32.6,2.63.91,3.95.06.24.14.48.25.84.18-.24.29-.36.36-.49,1.89-3.52,4.93-5.35,8.79-5.89,1.11-.16,2.28-.19,3.39-.05,2.69.34,4.39,2.22,4.68,4.93.24,2.29-.22,4.48-.91,6.64-.19.6-.41,1.2-.61,1.78-1.44-.21-2.81-.46-4.2-.59-2.47-.23-4.87.05-7.13,1.18-.17.08-.33.19-.5.28-.95.51-1.37,1.2-1.36,2.38.06,9.61.03,19.21.03,28.82v.99Z"/>
</svg>