<?xml version="1.0" encoding="UTF-8"?>
<svg id="Camada_5" data-name="Camada 5" xmlns="http://www.w3.org/2000/svg" viewBox="0 0 300 300">
  <defs>
    <style>
      .cls-1 {
        fill: #fff;
        stroke-width: 0px;
      }
    </style>
  </defs>
  <path class="cls-1" d="M57.96,131.52c.34,2.78.69,5.56,1.07,8.64-18.6,3.61-29.64,13.76-28.87,32.85.54,13.25,10.19,23.83,22.74,26.42,0-6.23.1-12.32-.13-18.41-.03-.7-1.8-1.82-2.84-1.92-2.84-.27-5.73-.09-9.92-.09,6.29-9.08,11.94-17.23,17.6-25.39.28.12.56.24.84.36v55.63c-3.21-.55-6.18-.8-9.01-1.58-16.73-4.65-28.12-19.54-28.34-36.87-.23-17.23,10.91-32.42,27.48-37.58,1.66-.52,3.22-1.37,4.83-2.07,1.52,0,3.04,0,4.57,0Z"/>
  <path class="cls-1" d="M66.18,131.52c1.66.59,3.29,1.3,4.99,1.76,17.74,4.84,29.85,21.67,28.66,39.89-1.21,18.45-15.63,33.8-33.93,36.07-.89.11-1.81.01-3.16.01v-56.31c6.19,8.91,11.78,16.95,18.02,25.91h-12.45v20.8c2.06-.73,3.95-1.21,5.67-2.03,11.37-5.43,17.99-17.16,16.8-29.63-1.17-12.2-10.25-23.01-22.02-26.24q-6.73-1.84-6.4-8.91c.02-.45.11-.9.16-1.35,1.22,0,2.44,0,3.65,0Z"/>
  <path class="cls-1" d="M152.53,171.39c-2.72,11.44-13.35,18.48-24.73,17.04-11.66-1.47-20.32-11.04-20.38-22.52-.06-11.52,8.75-21.34,20.23-22.55,12.07-1.27,22.26,5.49,24.94,17.08-5.22-.22-10.49,2.19-14.47-3.87-1.27-1.94-4.88-3.02-7.54-3.28-5.47-.54-10.2,3.58-11.42,9.07-1.4,6.33,1.22,12.6,6.34,15.19,4.97,2.51,10.15,1.04,14.22-3.59,1.11-1.26,3.06-2.17,4.76-2.45,2.5-.41,5.12-.11,8.04-.11Z"/>
  <path class="cls-1" d="M200.13,160.61c-3.04,0-6.08.23-9.06-.11-1.22-.14-2.55-1.31-3.4-2.36-4.69-5.83-11.99-6.73-17.07-1.99-5.34,4.99-5.26,14.53.18,19.54,5.03,4.64,12.26,3.99,16.66-1.83,1.5-1.98,3.04-2.61,5.33-2.5,2.41.13,4.83.03,7.27.03-.78,9.79-11.2,17.59-22.47,17.17-12.59-.46-22.17-10.47-22.08-23.06.09-12.17,9.55-21.81,21.83-22.25,11.72-.42,22.06,7.25,22.83,17.37Z"/>
  <path class="cls-1" d="M218.09,173.91v-8.4c3.01-1.55,5.84-2.72,8.29-4.44.71-.5.64-2.6.38-3.85-.71-3.37-4.21-4.4-11.52-3.39v34.38h-10.86v-44.46c7.41,0,14.86-.65,22.14.18,7.65.87,11.73,6.9,11.59,14.92-.14,7.92-4.58,13.7-11.88,14.99-2.47.44-5.09.07-8.13.07Z"/>
  <path class="cls-1" d="M245.97,165.93c4.39,0,7.56.13,10.72-.03,4.41-.23,6.79-2.6,6.73-6.36-.05-3.51-2.31-5.81-6.6-6.02-5.14-.24-10.3-.06-15.87-.06v-9.61c7.32,0,14.6-.57,21.75.16,6.78.7,10.99,5.91,11.76,12.54.86,7.45-1.98,12.76-8.5,15.87-.54.26-1.07.54-2.14,1.08,3.73,4.81,7.34,9.47,11.62,14.99-4.59,0-8.28.08-11.97-.06-.75-.03-1.68-.73-2.17-1.39-4.91-6.67-9.73-13.39-15.33-21.12Z"/>
</svg>