<?xml version="1.0" encoding="UTF-8"?>
<svg id="Camada_6" data-name="Camada 6" xmlns="http://www.w3.org/2000/svg" viewBox="0 0 300 300">
  <defs>
    <style>
      .cls-1 {
        fill: #fff;
        stroke-width: 0px;
      }
    </style>
  </defs>
  <path class="cls-1" d="M23.01,177.91c-1.52.66-2.74,1.68-3.61,3.09-.65,1.06-.56,2.22.38,3.02.77.65,1.66,1.22,2.59,1.6,2.49,1.02,5.15,1.36,7.81,1.53,9.29.61,18.4-.6,27.34-3.07,4.98-1.37,9.66-3.48,14.07-6.16.56-.34,1.07-.48,1.72-.27,5.15,1.65,10.13,3.67,14.69,6.61,2.49,1.61,4.77,3.45,6.5,5.89,3.12,4.41,2.43,8.93-1.8,12.32-2.88,2.3-6.2,3.66-9.69,4.66-5.07,1.46-10.26,2.11-15.52,2.37-8.9.44-17.7-.37-26.4-2.21-7.48-1.58-14.71-3.89-21.38-7.71-3.13-1.79-6.01-3.91-8.18-6.84-1.71-2.31-2.6-4.85-1.72-7.73.71-2.34,2.29-4.08,4.29-5.35,1.75-1.11,3.66-1.96,5.5-2.93.31-.16.59-.37.89-.55l2.52,1.72Z"/>
  <path class="cls-1" d="M86.33,140.69c-.38,1.92-.67,3.81-1.12,5.66-3.28,13.56-11.37,23.34-23.62,29.79-6.5,3.42-13.43,5.52-20.71,6.47-.19.02-.38,0-.7,0,0-.27-.02-.53,0-.79.71-7.53,2.69-14.65,6.83-21.08,4.45-6.9,10.59-11.8,18.01-15.18,6.44-2.93,13.22-4.5,20.27-4.96.19-.01.39-.02.58-.01.08,0,.16.03.46.1Z"/>
  <path class="cls-1" d="M169.36,161.16c-.06-.23-.13-.38-.13-.54,0-2.08,0-4.16-.02-6.24,0-.55.32-.73.77-.79,2.72-.4,5.42-.88,8.15-1.17,3.18-.33,6.39-.32,9.54.33,1.4.29,2.81.72,4.09,1.33,2.78,1.33,4.27,3.74,4.88,6.67.31,1.51.51,3.07.52,4.61.05,6.88,0,13.75.04,20.63,0,.81-.27,1.18-1.02,1.42-3.88,1.24-7.86,1.96-11.91,2.26-3.31.25-6.6.18-9.88-.36-1.63-.27-3.19-.74-4.58-1.67-1.77-1.17-2.77-2.87-3.21-4.88-.67-3.04-.71-6.11-.04-9.16.91-4.13,3.72-6.23,7.72-6.89,4.37-.72,8.74-.54,13.09.24.38.07.77.13,1.15.18.05,0,.11-.02.16-.03,1-2.84-.77-6.35-3.62-7.08-2.37-.61-4.79-.57-7.2-.41-2.75.18-5.46.63-8.08,1.5-.1.03-.22.02-.41.04ZM188.85,177.54c0-1.22-.02-2.44,0-3.66.01-.54-.17-.83-.73-.88-1.13-.11-2.26-.35-3.39-.37-2.08-.04-4.17-.06-6.23.12-2,.18-2.99,1.26-3.17,3.24-.11,1.18-.1,2.38,0,3.56.18,2.1,1.23,3.15,3.31,3.43,3.18.43,6.31.13,9.4-.73.63-.17.83-.5.81-1.12-.04-1.19-.01-2.39-.01-3.58Z"/>
  <path class="cls-1" d="M163.67,171.07c0,2.78-.22,5.54-.87,8.25-1.38,5.74-4.93,9.15-10.81,10.07-4.15.65-8.3.67-12.39-.37-4.37-1.11-7.2-3.89-8.58-8.15-1.32-4.1-1.49-8.33-1.26-12.59.13-2.53.47-5.02,1.31-7.43,1.62-4.64,4.95-7.23,9.71-8.09,3.97-.73,7.95-.71,11.92.04,5.91,1.11,9.19,4.85,10.26,10.59.47,2.52.61,5.1.91,7.66l-.2.02ZM154.8,171.08s-.09,0-.14,0c0-.86.07-1.73-.02-2.58-.18-1.7-.33-3.42-.71-5.09-.5-2.21-1.97-3.54-4.25-3.9-2.1-.33-4.2-.35-6.29.04-1.91.36-3.19,1.48-3.81,3.32-.18.52-.33,1.06-.43,1.6-.6,3.21-.6,6.46-.37,9.69.11,1.62.39,3.25.81,4.82.52,1.95,1.9,3.14,3.91,3.54,2.12.42,4.25.42,6.37-.01,2.03-.42,3.34-1.67,3.97-3.62.21-.66.41-1.34.48-2.02.2-1.93.33-3.86.49-5.79Z"/>
  <path class="cls-1" d="M263.62,170.18c0,5.19-.02,10.37.02,15.56,0,.84-.29,1.21-1.08,1.47-5.76,1.85-11.64,2.87-17.7,2.62-2.06-.09-4.08-.44-5.99-1.3-2.96-1.32-4.62-3.72-5.53-6.71-.84-2.73-1.03-5.55-1.03-8.39,0-6.32,0-12.65,0-18.97,0-1.1,0-1.1,1.12-1.1,2.19,0,4.39,0,6.58,0,.95,0,.98.03.98.99,0,6.19-.02,12.37.01,18.56,0,1.38.09,2.78.32,4.14.54,3.3,2.11,4.7,5.48,4.95,2.34.17,4.66.03,6.95-.52,1.14-.28,1.14-.27,1.14-1.43,0-8.4,0-16.81,0-25.21q0-1.46,1.44-1.46c2.03,0,4.05,0,6.08,0,1.21,0,1.21,0,1.21,1.19,0,5.21,0,10.43,0,15.64Z"/>
  <path class="cls-1" d="M202.9,181.2c1.74.37,3.33.76,4.94,1.03,3,.51,6.01.7,9.04.27,3.07-.43,3.83-2.42,3.38-5.12-.2-1.22-1.14-1.94-2.26-2.21-1.75-.42-3.53-.67-5.3-.99-2.04-.37-4.14-.57-6.11-1.17-3.64-1.11-5.54-3.71-5.73-7.52-.07-1.29-.07-2.61.1-3.89.62-4.64,3.39-7.4,7.84-8.54,4.01-1.03,8.08-1.02,12.16-.43,1.43.21,2.84.54,4.26.79.61.11.89.39.87,1.06-.04,2.1-.01,4.2-.01,6.44-.39-.08-.68-.12-.95-.2-3.61-1-7.28-1.53-11.03-1.34-.83.04-1.66.16-2.46.37-1.14.29-1.9,1.05-2.11,2.22-.12.67-.17,1.38-.12,2.06.09,1.2.89,1.94,1.97,2.22,1.58.41,3.2.64,4.8.95,2.25.44,4.56.72,6.75,1.38,3.9,1.19,5.86,4.04,6.06,8.06.07,1.43,0,2.89-.23,4.31-.71,4.35-3.43,6.89-7.58,8.01-3.09.84-6.25,1.05-9.42.76-2.65-.24-5.28-.69-7.92-1.01-.76-.09-1.01-.45-.99-1.21.05-1.77.01-3.55.02-5.32,0-.3.04-.6.06-.97Z"/>
  <path class="cls-1" d="M126.62,161.27c-.64-.18-1.22-.34-1.8-.51-3.17-.9-6.38-1.17-9.65-.72-2.69.37-4.48,1.82-5.25,4.45-.86,2.95-.86,5.97-.67,8.99.1,1.66.35,3.3,1.03,4.86.75,1.71,1.98,2.88,3.77,3.37,2.87.79,5.78.64,8.66.06,1.03-.21,2.03-.57,3.04-.86.26-.07.52-.13.82-.21.04.28.1.46.1.65,0,2.19,0,4.38,0,6.57,0,.49-.15.77-.66.88-4.88,1.11-9.78,1.45-14.69.32-5.61-1.29-8.95-4.9-10.28-10.4-1.19-4.93-1.22-9.91-.17-14.85,1.42-6.7,5.55-10.4,12.37-11.33,4.24-.58,8.42-.25,12.58.6.64.13.87.4.86,1.05-.03,2.11-.01,4.22-.01,6.32,0,.22-.04.43-.07.74Z"/>
  <path class="cls-1" d="M268.01,164.51c0-3.38,0-6.77,0-10.15,0-1.13,0-1.13,1.17-1.13,2.11,0,4.22,0,6.33,0q1.17,0,1.17,1.21c0,6.24-.02,12.48.04,18.72.01,1.49.17,3,.46,4.46.55,2.67,2.12,4.06,4.85,4.21,2.63.15,5.27.12,7.91.16,1,.02,1.02.02,1.02,1.03,0,2-.01,3.99,0,5.99,0,.6-.19.84-.82.82-3.52-.07-7.05-.01-10.57-.19-3-.15-5.8-1.04-7.96-3.31-1.66-1.75-2.57-3.9-2.94-6.23-.34-2.13-.57-4.29-.64-6.44-.11-3.05-.03-6.1-.03-9.15Z"/>
  <path class="cls-1" d="M23.01,177.91l-2.52-1.72c-3.59-2.68-5.96-6.16-6.91-10.55-.74-3.43-.52-6.81.55-10.21.23.09.37.12.47.2,2.89,2.47,6.28,4.06,9.69,5.63,2.5,1.15,5,2.29,7.23,3.93,5.7,4.22,6.76,10.75,4.93,16.68-.16.52-.45.6-.94.5-4.38-.89-8.61-2.19-12.49-4.46Z"/>
  <path class="cls-1" d="M43.27,132.57c2.16,1.55,3.73,3.44,4.7,5.8.97,2.38.95,4.81.2,7.25-.99,3.19-2.71,6-4.51,8.78-.57.88-1.14,1.78-1.69,2.67-1.93,3.08-3.18,6.34-2.46,10.3-.64-.52-1.12-.88-1.57-1.26-1.68-1.42-3.17-3.03-4.4-4.86-3.04-4.52-3.05-8.58.05-13.05,1.37-1.98,2.88-3.87,4.37-5.77,2.23-2.84,4.15-5.83,5.09-9.36.03-.13.11-.25.23-.5Z"/>
</svg>