<?xml version="1.0" encoding="UTF-8"?>
<svg id="Camada_7" data-name="Camada 7" xmlns="http://www.w3.org/2000/svg" viewBox="0 0 300 300">
  <defs>
    <style>
      .cls-1 {
        fill: #fff;
        stroke-width: 0px;
      }
    </style>
  </defs>
  <path class="cls-1" d="M65.19,154.52c-1.2,6.88.19,11.7,6.75,13.38-1.66,8.12-3.27,16.04-4.92,23.94-.22,1.06-.68,2.07-1,3.11-1.08,3.42-3.44,5.24-7,5.3-5.95.09-11.9.18-17.84.01-3.97-.11-6.66-2.88-6.42-6.82.27-4.57,1.01-9.13,1.71-13.67.79-5.14,1.8-10.25,2.65-15.39,1.07-6.48,4.78-9.75,11.43-9.85,4.7-.07,9.4-.01,14.63-.01Z"/>
  <path class="cls-1" d="M136.67,209.63c-4.51-12.69-10.38-24.4-17.98-36.28-1.68,9.37-3.19,17.82-4.75,26.56h-7.01c2.58-14.82,5.13-29.5,7.86-45.14,4.58,4.9,7.91,9.6,10.88,14.53,2.94,4.86,5.6,9.89,8.76,15.53,1.52-8.11,2.95-15.71,4.42-23.54h6.56c-2.94,16.27-5.84,32.31-8.75,48.35Z"/>
  <path class="cls-1" d="M152.41,200.04h-6.8c0-1.22-.16-2.27.02-3.27,1.94-10.72,3.91-21.43,5.91-32.14.71-3.81.76-3.85,4.66-3.83,3.15.02,6.32-.03,9.45.26,7.82.72,11.89,5.75,11.17,13.57-.85,9.18-7.71,15.72-17.08,16.23-1.79.1-3.6.01-5.58.01-.62,3.22-1.16,6.04-1.76,9.16ZM155.48,183.83c7.66,1.26,12.13-1.16,13.58-7.07.65-2.64.8-5.44-1.36-7.49-2.32-2.19-5.38-1.92-8.28-1.64-.51.05-1.27.85-1.37,1.4-.91,4.85-1.7,9.73-2.56,14.79Z"/>
  <path class="cls-1" d="M171.72,199.38c7.91-13.16,15.92-26.26,23.91-39.38.42.1.84.2,1.26.3,3.27,13.05,6.54,26.11,9.94,39.69-1.93.09-3.44.11-4.94.25-2.12.2-2.96-.79-3.39-2.81-1.29-6.04-2.77-12.03-4.2-18.04-.21-.89-.56-1.74-1.08-3.31-3.06,5.1-5.76,9.61-8.83,14.73h10.38c.56,2.19,1.05,4.11,1.73,6.77-3.64,0-6.85-.08-10.06.02-2.77.09-5.56-.64-8,2.12-1,1.13-4.1.42-6.24.55-.16-.3-.32-.6-.48-.9Z"/>
  <path class="cls-1" d="M248.63,190.82h10.3c.57,2.16,1.08,4.08,1.73,6.52-2,.09-3.62.22-5.25.24-2.79.04-5.58-.02-8.37.04-.82.02-2.05,0-2.39.48-2.24,3.21-5.36,1.93-9.13,2.01,8.09-13.83,16.34-26.86,24.28-40.07.43.07.85.15,1.28.22,3.28,13.04,6.55,26.08,10.03,39.9-2.5,0-4.53.26-6.43-.12-.8-.16-1.65-1.59-1.91-2.6-1.52-5.98-2.86-12.01-4.29-18.01-.21-.9-.57-1.77-1.08-3.33-3.05,5.12-5.74,9.64-8.77,14.73Z"/>
  <path class="cls-1" d="M208.52,200.23c.57-2.08,1-3.42,1.31-4.8.41-1.83,1.43-2.56,3.35-2.45,3.02.17,6.05.15,9.08.18,1.09.01,2.27.2,3.24-.16,1.27-.47,2.85-1.16,3.38-2.21.38-.76-.48-2.5-1.25-3.4-2.35-2.76-5.05-5.23-7.39-8-1.54-1.82-3.17-3.81-3.91-6.01-1.73-5.13,1.97-11.55,7.35-12.15,5.46-.61,11.04-.13,17.05-.13-.79,2.27-1.47,4.26-2.26,6.51-1.44,0-2.76-.01-4.07,0-2.3.02-4.63-.13-6.89.17-1.31.17-3.14.79-3.61,1.76-.44.92.23,2.83,1.03,3.8,2.29,2.81,5.01,5.26,7.32,8.05,1.59,1.92,3.34,4,4.05,6.31,1.59,5.13-1.48,10.6-6.8,11.88-6.74,1.62-13.62.37-20.98.66Z"/>
  <path class="cls-1" d="M85.22,162.66c-1.95,10.16-3.82,20.13-5.78,30.09-.89,4.5-3.67,6.94-8.35,7.12-2.03.08-4.05.28-6.27.18,3.76-2.66,4.25-6.64,4.96-10.57.9-5,1.98-9.98,2.92-14.97.62-3.31,2.2-5.7,5.41-7.2,2.35-1.09,4.4-2.84,7.1-4.64Z"/>
  <path class="cls-1" d="M101.19,155.59c1.58,1.96,3.22,3.87,4.69,5.91.44.61.63,1.61.51,2.36-1.91,11.57-3.89,23.12-5.88,34.68-.08.46-.34.88-.55,1.41h-7.33c2.6-14.98,5.14-29.58,7.68-44.18.3-.06.59-.12.89-.18Z"/>
  <path class="cls-1" d="M77.89,144.26c1.58,2.81,3.03,5.45,4.54,8.05,1.86,3.22,1.47,6.29-.67,9.14-2.19,2.92-5.23,4.36-8.87,3.84-5.12-.73-7.13-7.05-3.6-11.37,2.66-3.26,5.6-6.31,8.6-9.66Z"/>
</svg>